<svg width="540" height="730" viewBox="0 0 540 730" fill="none" xmlns="http://www.w3.org/2000/svg">
<path d="M345.633 163.124C340.505 162.581 337.066 159.987 337.066 154.71C337.066 149.492 340.264 146.326 345.482 146.356C350.308 146.356 353.354 149.402 353.626 154.167C353.927 159.444 350.67 162.219 345.633 163.124ZM4.34344 583.041C4.7959 587.444 7.9328 590.249 12.3667 589.917C17.1324 589.555 20.0883 586.358 19.6057 581.443C19.1533 577.009 16.0163 574.748 11.4919 574.416C6.90723 575.441 3.80048 578.125 4.34344 583.071V583.041ZM392.415 194.397C387.83 194.458 385.055 197.292 385.115 201.876C385.176 206.46 388.011 209.235 392.596 209.175C397.18 209.114 399.624 206.279 399.985 201.726C399.503 197.112 396.999 194.337 392.415 194.397ZM249.143 480.776C244.95 480.866 242.386 483.369 242.235 487.592C242.085 492.176 244.618 495.01 249.233 495.131C253.878 495.221 256.291 492.507 256.653 487.923C256.231 483.339 253.757 480.685 249.143 480.806V480.776ZM392.415 147.261C387.83 147.321 385.055 150.156 385.115 154.74C385.176 159.324 388.011 162.098 392.596 162.038C397.18 161.978 399.624 159.143 399.985 154.589C399.503 149.975 396.999 147.2 392.415 147.261ZM202.783 542.268C206.975 542.026 209.419 539.373 209.388 535.181C209.388 530.566 206.704 527.882 202.089 527.943C197.414 528.003 195.182 530.898 194.971 535.392C195.574 540.066 198.198 542.539 202.783 542.268ZM107.499 575.079C102.854 575.381 100.471 578.336 100.803 582.89C101.105 587.112 103.789 589.465 107.982 589.404C112.627 589.344 114.919 586.539 115.221 581.865C114.618 577.432 112.114 574.778 107.469 575.079H107.499ZM66.5084 581.835C66.2671 577.251 63.281 574.627 58.7265 574.868C54.1418 575.11 51.5176 578.095 51.7589 582.649C52.0002 587.233 54.9863 589.525 59.4202 589.706C64.1256 589.042 66.7799 586.358 66.5386 581.805L66.5084 581.835ZM337.971 344.794C337.941 349.378 340.686 352.213 345.271 352.273C349.855 352.334 352.691 349.559 352.751 344.975C352.811 340.391 350.036 337.888 345.24 337.375C340.957 337.828 338.032 340.18 338.001 344.794H337.971ZM399.654 248.38C399.382 244.188 396.758 241.745 392.535 241.775C387.92 241.775 385.236 244.489 385.326 249.104C385.417 253.778 388.282 256.01 392.777 256.221C397.452 255.618 399.925 252.964 399.624 248.38H399.654ZM297.644 432.011C293.451 432.252 291.008 434.906 291.038 439.098C291.038 443.742 293.723 446.396 298.368 446.336C303.043 446.245 305.275 443.38 305.486 438.887C304.883 434.212 302.259 431.739 297.674 432.011H297.644ZM149.063 629.062C148.912 632.922 151.326 635.455 155.156 635.425C158.987 635.395 161.37 632.771 161.098 628.941C160.887 625.564 158.474 623.633 155.035 623.272C151.567 623.724 149.184 625.654 149.063 629.062ZM114.376 629.755C114.527 625.503 111.903 622.849 107.68 622.97C103.88 623.06 101.467 625.624 101.497 629.454C101.497 633.314 104.061 635.365 107.801 635.998C111.601 635.576 114.226 633.555 114.376 629.755ZM52.5432 628.579C52.0907 632.862 54.4736 635.636 58.7265 635.968C62.6175 636.3 65.2114 633.947 65.694 630.178C66.2068 625.865 63.643 623.513 59.2996 622.578C55.7404 622.94 52.9654 624.719 52.5733 628.579H52.5432ZM11.8237 622.638C7.60095 622.759 5.15784 625.292 5.24829 629.544C5.33881 633.766 7.90259 636.209 12.1254 636.119C16.3783 636.028 18.4595 633.374 18.8215 629.213C18.2484 625.111 16.0767 622.548 11.7936 622.668L11.8237 622.638ZM12.5477 684.19C15.8957 683.889 18.188 681.476 18.0071 678.008C17.7959 674.178 15.2321 671.826 11.4014 672.157C8.02325 672.429 6.15314 674.872 5.82135 678.34C6.48492 682.109 8.68683 684.522 12.5477 684.19ZM447.793 58.5966C447.672 54.7666 445.259 52.2333 441.459 52.2635C437.236 52.2635 434.642 54.9777 434.914 59.1998C435.155 62.9695 437.809 64.9901 442.002 65.3218C445.229 64.4473 447.914 62.5473 447.823 58.5966H447.793ZM442.032 148.045C437.749 147.653 435.004 150.065 434.733 154.348C434.491 158.238 436.844 160.832 440.645 161.194C444.958 161.646 447.311 159.022 448.065 154.981C447.823 151 445.833 148.376 442.002 148.015L442.032 148.045ZM435.065 11.7012C435.065 15.1996 437.447 17.582 440.856 17.7931C444.747 18.0645 447.371 15.6218 447.582 11.7917C447.793 7.87122 445.169 5.79034 441.368 5.09668C437.598 5.69983 435.034 7.75055 435.065 11.6711V11.7012ZM434.733 105.733C434.763 110.016 437.387 112.579 441.67 112.428C445.531 112.308 447.944 109.805 447.944 105.914C447.944 101.572 445.229 99.4604 441.037 99.0684C437.236 99.762 434.703 101.813 434.733 105.733ZM202.33 575.773C198.47 575.713 195.906 578.125 195.815 581.925C195.695 586.177 198.319 588.801 202.572 588.65C206.402 588.53 208.393 585.876 208.845 582.106C208.242 578.367 206.191 575.803 202.33 575.773ZM148.37 581.985C148.219 586.208 150.632 588.801 154.854 588.952C159.077 589.103 161.641 586.69 161.852 582.468C162.033 578.216 159.5 575.984 155.397 575.351C151.205 575.652 148.52 577.703 148.37 581.955V581.985ZM338.756 438.464C338.363 442.747 340.776 445.491 345.059 445.763C348.95 446.004 351.544 443.652 351.906 439.852C352.359 435.539 349.735 433.187 345.693 432.433C341.711 432.674 339.087 434.665 338.725 438.495L338.756 438.464ZM399.352 296.18C399.382 291.928 397.03 289.364 392.807 289.244C388.162 289.123 385.538 291.747 385.658 296.391C385.779 300.673 388.433 302.754 392.626 303.056C396.818 302.634 399.352 300.462 399.382 296.18H399.352ZM441.911 302.332C445.621 301.88 448.065 299.256 447.522 295.305C447.069 291.928 444.626 289.636 441.127 289.817C437.236 290.028 435.245 292.621 434.884 296.421C435.788 300.191 437.99 302.784 441.881 302.332H441.911ZM434.853 201.394C434.552 205.284 436.965 207.908 440.675 208.24C444.898 208.632 447.642 206.038 447.733 201.816C447.823 197.956 445.229 195.875 441.489 195.212C437.689 195.604 435.125 197.594 434.823 201.394H434.853ZM304.792 488.376C304.973 484.093 302.44 481.439 298.157 481.379C294.266 481.319 291.792 483.731 291.581 487.592C291.37 491.934 294.024 494.136 298.127 494.739C302.018 494.256 304.612 492.266 304.762 488.376H304.792ZM339.329 487.441C339.027 491.271 341.41 493.834 345.21 494.015C348.679 494.166 351.092 491.874 351.363 488.526C351.665 484.666 349.252 482.495 345.482 481.831C342.013 482.163 339.6 484.063 339.329 487.441ZM392.475 385.749C388.946 385.718 386.563 388.041 386.231 391.418C385.869 395.339 388.313 397.963 392.113 398.264C396.004 398.566 398.176 395.972 398.99 391.871C398.296 388.523 396.456 385.779 392.475 385.749ZM338.484 391.569C338.243 395.791 340.445 398.536 344.667 398.867C349.252 399.229 352.087 396.786 352.208 392.082C352.299 387.799 349.765 385.568 345.21 385.025C341.53 385.387 338.725 387.257 338.484 391.569ZM255.99 535.271C255.99 530.989 253.396 528.425 249.112 528.516C245.252 528.606 242.808 531.109 242.778 534.969C242.718 539.312 245.463 541.453 249.595 541.876C253.426 541.242 255.959 539.161 255.99 535.271ZM298.609 529.089C294.748 528.908 292.275 531.29 292.185 535.15C292.124 538.619 294.447 540.971 297.825 541.152C301.686 541.363 303.797 538.89 304.37 535.03C303.857 531.682 302.018 529.239 298.579 529.089H298.609ZM393.018 338.31C388.735 338.039 386.05 340.542 385.9 344.824C385.779 348.715 388.192 351.248 391.992 351.52C396.306 351.821 398.598 349.167 399.231 345.096C398.869 341.145 396.818 338.552 392.988 338.31H393.018ZM441.942 242.499C438.081 242.077 435.396 244.429 434.944 248.138C434.431 252.391 436.965 255.135 441.157 255.376C445.018 255.587 447.13 253.024 447.914 249.345C447.672 245.485 445.682 242.891 441.911 242.499H441.942ZM249.686 624.448C246.458 624.327 244.498 626.227 244.498 629.454C244.498 632.289 246.277 634.128 249.082 634.249C252.34 634.4 253.999 632.409 254.391 629.303C253.999 626.468 252.521 624.568 249.686 624.448ZM196.992 629.092C196.871 632.319 198.5 634.4 201.787 634.581C205.437 634.792 207.548 632.892 207.488 629.182C207.458 625.895 205.528 624.237 202.24 624.025C199.043 624.176 197.112 625.775 196.961 629.092H196.992ZM446.768 345.397C446.979 341.748 445.169 339.517 441.399 339.426C438.141 339.336 436.06 341.085 435.849 344.372C435.607 348.021 437.478 350.102 441.64 350.434C444.355 350.162 446.556 348.745 446.737 345.397H446.768ZM493.127 344.674C492.946 341.899 491.076 340.029 488.241 340.21C485.466 340.361 483.626 342.231 483.777 345.096C483.928 347.901 485.858 349.408 488.633 349.68C491.378 349.077 493.308 347.539 493.127 344.674ZM11.7936 720.621C9.01862 720.802 7.17865 722.672 7.32947 725.507C7.48029 728.281 9.38055 730.121 12.2159 729.97C15.021 729.819 16.5291 727.889 16.8005 725.114C16.1973 722.37 14.659 720.44 11.7936 720.621ZM488.301 254.019C491.227 254.14 493.158 252.602 493.52 249.737C493.912 246.48 492.404 244.218 489.055 243.886C485.798 243.555 483.807 245.243 483.325 248.561C483.385 251.848 484.923 253.868 488.301 254.019ZM493.7 59.2903C493.972 56.1237 492.524 53.8618 489.236 53.4999C485.677 53.1381 483.355 54.7666 483.204 58.5363C483.083 61.7934 484.833 63.633 488.06 63.9949C491.287 63.9949 493.399 62.5473 493.7 59.2601V59.2903ZM493.369 296.18C493.369 292.953 491.408 291.053 488.181 291.174C485.376 291.294 483.596 293.134 483.566 295.969C483.566 299.226 485.587 300.824 488.694 301.096C491.529 300.613 493.369 299.045 493.369 296.21V296.18ZM59.8727 672.73C56.2833 672.399 53.8703 674.087 53.6894 677.857C53.5084 681.536 55.5293 683.647 59.2393 683.647C62.527 683.647 64.3367 681.778 64.6685 678.159C64.578 675.294 63.1604 673.062 59.8727 672.73ZM107.68 673.092C104.755 673.213 103.005 674.902 102.854 677.827C102.703 681.144 104.423 683.165 107.771 683.255C111.119 683.346 112.838 681.416 113.11 677.767C112.687 674.932 111.089 672.972 107.68 673.122V673.092ZM159.982 678.491C160.103 675.264 158.203 673.303 154.975 673.303C152.14 673.303 150.3 675.083 150.179 677.887C150.028 681.144 152.019 682.803 155.126 683.195C157.961 682.803 159.861 681.325 159.982 678.491ZM488.905 100.576C485.707 100.365 483.506 101.903 483.204 105.16C482.902 108.719 484.622 111.011 488.392 111.071C491.649 111.132 493.429 109.322 493.761 105.613C493.58 102.929 492.223 100.787 488.874 100.546L488.905 100.576ZM488.784 149.402C485.557 149.221 483.445 150.819 483.204 154.106C482.963 157.725 484.772 159.897 488.513 159.897C491.8 159.897 493.489 158.027 493.731 154.71C493.61 151.543 492.042 149.553 488.754 149.402H488.784ZM493.55 11.3997C493.459 8.47437 491.83 6.69501 488.905 6.48395C485.617 6.27283 483.536 7.96167 483.385 11.3092C483.234 14.6567 485.104 16.4059 488.844 16.7376C491.589 16.3456 493.64 14.8075 493.52 11.3997H493.55ZM387.619 487.26C387.197 490.457 388.976 492.568 392.173 492.869C395.039 493.141 396.969 491.391 397.331 488.677C397.784 485.45 395.883 483.611 392.867 482.977C389.941 483.068 387.981 484.515 387.619 487.26ZM445.983 439.339C446.134 436.474 444.294 434.604 441.489 434.453C438.654 434.303 436.784 436.142 436.603 438.917C436.422 441.782 438.352 443.32 441.127 443.923C443.902 443.621 445.833 442.144 445.983 439.309V439.339ZM393.199 433.7C389.61 433.368 387.197 435.057 387.046 438.826C386.895 442.506 388.886 444.617 392.626 444.586C395.914 444.586 397.693 442.687 398.055 439.068C397.965 436.233 396.517 434.001 393.229 433.7H393.199ZM345.512 530.024C342.586 529.903 340.656 531.441 340.294 534.336C339.902 537.593 341.41 539.855 344.758 540.187C348.015 540.519 350.006 538.83 350.489 535.512C350.428 532.225 348.89 530.205 345.512 530.054V530.024ZM254.843 582.77C255.054 579.121 253.245 576.889 249.474 576.798C246.217 576.708 244.136 578.457 243.924 581.744C243.683 585.393 245.553 587.474 249.716 587.806C252.43 587.565 254.632 586.117 254.843 582.77ZM297.734 577.19C294.809 577.402 293.15 579.181 293.12 582.106C293.089 585.454 294.899 587.354 298.247 587.323C301.625 587.323 303.224 585.273 303.345 581.985C302.922 578.668 301.052 576.949 297.734 577.19ZM436.241 392.625C436.482 395.52 438.322 397.148 441.278 397.118C444.626 397.088 446.496 395.218 446.406 391.871C446.315 388.493 444.234 386.955 440.946 386.895C437.628 387.377 435.969 389.337 436.271 392.625H436.241ZM493.7 201.695C493.61 198.408 491.77 196.569 488.513 196.569C484.772 196.569 482.963 198.74 483.204 202.359C483.415 205.646 485.557 207.124 489.116 207.124C491.981 206.702 493.791 204.983 493.7 201.695ZM535.325 110.167C537.858 110.378 539.638 108.689 539.879 106.306C540.151 103.441 538.341 101.511 535.445 101.541C532.972 101.541 531.585 103.321 531.193 105.794C531.494 108.297 532.882 109.955 535.325 110.167ZM202.692 673.846C200.159 673.545 198.319 675.143 197.987 677.525C197.565 680.421 199.344 682.351 202.21 682.471C204.713 682.592 206.131 680.843 206.734 678.038C206.372 676.018 205.166 674.148 202.722 673.846H202.692ZM393.048 530.778C390.545 530.385 388.675 531.924 388.252 534.336C387.739 537.261 389.489 539.161 392.324 539.403C394.858 539.614 396.275 537.865 396.879 535.422C396.818 532.919 395.401 531.2 393.048 530.808V530.778ZM345.814 577.914C343.28 577.613 341.44 579.181 341.078 581.563C340.656 584.458 342.405 586.389 345.301 586.539C347.804 586.66 349.222 584.911 349.825 582.106C349.433 580.086 348.287 578.216 345.814 577.914ZM536.049 150.337C533.515 150.005 531.675 151.633 531.343 154.016C530.921 156.911 532.701 158.841 535.566 158.962C538.07 159.082 539.487 157.333 540 154.83C539.849 152.357 538.462 150.638 536.049 150.337ZM59.3901 720.983C56.8263 720.802 55.0768 722.461 54.8355 724.843C54.564 727.708 56.3738 729.638 59.2694 729.608C61.7427 729.608 63.1604 727.829 63.5525 725.084C63.1 722.973 61.8634 721.164 59.3599 720.983H59.3901ZM441.911 484.304C439.348 484.063 437.659 485.209 437.628 487.984C437.628 490.245 438.865 491.512 441.127 491.633C443.389 491.753 444.686 490.577 445.018 488.345C445.078 486.144 444.204 484.546 441.911 484.304ZM298.428 625.684C296.166 625.564 294.688 626.649 294.537 628.911C294.356 631.505 295.623 633.103 298.368 633.013C300.63 632.952 301.806 631.625 301.897 629.333C301.806 627.132 300.69 625.805 298.428 625.654V625.684ZM488.844 388.312C486.642 388.131 485.044 389.126 484.803 391.388C484.531 393.952 485.707 395.64 488.482 395.671C490.745 395.671 491.951 394.404 492.223 391.69C492.102 390.001 491.167 388.493 488.844 388.312ZM535.174 8.14264C533.304 8.2934 532.248 9.49976 532.188 11.3695C532.097 13.6615 533.304 14.9583 535.596 14.9583C537.889 14.9583 539.005 13.6012 539.035 11.4298C538.763 9.04736 537.406 7.96167 535.174 8.17273V8.14264ZM539.276 59.2903C539.517 56.7269 538.371 55.038 535.596 55.0078C533.334 55.0078 532.067 56.2443 531.947 58.5062C531.826 60.768 533.002 62.0648 535.536 62.4267C537.406 62.3965 539.065 61.5823 539.276 59.2601V59.2903ZM249.444 674.751C247.574 674.691 246.277 675.686 246.006 677.495C245.704 679.636 246.579 681.295 248.931 681.567C251.133 681.808 252.551 680.752 252.913 677.917C252.702 676.319 251.827 674.811 249.474 674.751H249.444ZM536.049 245.243C533.877 245.062 532.218 245.997 531.947 248.289C531.675 250.823 532.791 252.542 535.566 252.602C537.828 252.662 539.065 251.396 539.336 248.772C539.246 246.992 538.341 245.454 536.019 245.243H536.049ZM151.687 725.265C151.627 727.135 152.622 728.432 154.432 728.703C156.574 729.005 158.233 728.13 158.504 725.778C158.745 723.576 157.69 722.159 154.854 721.797C153.256 722.008 151.748 722.883 151.687 725.235V725.265ZM108.253 721.646C106.021 721.496 104.483 722.551 104.302 724.843C104.091 727.437 105.328 729.065 108.072 729.005C110.335 728.975 111.511 727.678 111.662 725.386C111.632 723.154 110.485 721.827 108.253 721.646ZM536.049 198.107C533.877 197.896 532.218 198.861 531.947 201.122C531.675 203.656 532.791 205.375 535.566 205.435C537.828 205.495 539.065 204.229 539.306 201.997C539.336 199.735 538.311 198.318 536.049 198.077V198.107ZM535.476 292.621C533.606 292.682 532.399 293.677 532.218 295.547C532.007 297.748 533.032 299.256 535.355 299.407C537.647 299.558 538.884 298.351 539.065 295.999C538.944 293.797 537.798 292.531 535.476 292.591V292.621ZM353.505 59.0189C353.656 53.8317 350.489 50.5445 345.271 50.5143C340.475 50.4842 337.368 53.5603 337.187 58.3252C336.976 63.5727 340.354 66.2869 345.331 67.0408C350.127 66.3472 353.384 63.8139 353.505 59.0189ZM337.308 10.9775C336.946 15.7725 339.932 19.0899 344.607 19.5121C349.795 19.9946 353.173 16.7979 353.384 11.6409C353.565 6.84583 350.338 4.19196 345.693 3.28723C340.957 3.70941 337.7 6.24268 337.338 10.9473L337.308 10.9775ZM392.234 4.37286C388.041 4.46338 385.477 6.96643 385.326 11.1885C385.176 15.7725 387.709 18.6074 392.324 18.6979C396.969 18.7883 399.382 16.0741 399.744 11.4901C399.322 6.90613 396.849 4.25226 392.234 4.37286ZM399.865 105.914C399.895 101.33 397.15 98.4954 392.565 98.4351C387.981 98.3748 385.146 101.149 385.085 105.733C385.025 110.317 387.8 112.82 392.626 113.333C396.909 112.881 399.835 110.528 399.865 105.914ZM392.385 51.2985C387.8 51.3588 385.025 54.1635 385.085 58.7474C385.146 63.3314 387.981 66.1059 392.565 66.0456C397.15 65.9853 399.593 63.1505 399.955 58.5966C399.473 54.0428 396.969 51.2381 392.385 51.2985ZM353.505 202.208C353.686 196.991 350.549 193.704 345.361 193.613C340.565 193.523 337.428 196.599 337.187 201.334C336.916 206.581 340.264 209.325 345.633 210.2C349.885 209.386 353.324 207.064 353.505 202.208ZM337.308 248.772C337.247 253.567 340.294 256.764 345.029 256.914C350.187 257.065 353.475 253.778 353.384 248.621C353.294 243.856 349.976 241.323 345.029 240.659C340.716 241.534 337.368 243.947 337.338 248.802L337.308 248.772ZM345.21 288.158C340.746 288.188 337.73 291.174 337.489 295.577C337.217 300.432 340.294 303.689 345.09 303.9C349.976 304.111 352.6 300.824 353.415 296.089C352.66 291.355 350.097 288.128 345.21 288.188V288.158ZM99.9285 534.577C99.5967 539.403 102.613 542.69 107.258 543.082C112.446 543.504 115.824 540.307 116.005 535.181C116.156 530.385 112.929 527.762 108.012 526.827C103.638 527.46 100.26 529.812 99.9587 534.577H99.9285ZM147.435 534.849C147.374 539.704 150.451 542.871 155.277 542.75C160.103 542.63 163.089 539.373 162.757 534.517C162.455 530.114 159.379 527.701 154.885 527.279C150.541 527.973 147.495 530.416 147.435 534.879V534.849ZM297.765 384.15C293.391 384.392 290.375 387.407 290.345 391.84C290.345 396.696 293.421 399.862 298.247 399.862C303.103 399.862 305.667 396.545 306.301 391.66C305.275 387.106 302.681 383.879 297.765 384.15ZM194.367 488.044C194.367 492.507 197.323 495.553 201.697 495.855C206.553 496.187 209.841 493.11 210.112 488.345C210.384 483.46 207.126 480.806 202.361 479.931C197.625 480.595 194.398 483.188 194.367 488.044ZM257.407 439.49C257.528 434.303 254.27 431.016 249.082 431.136C244.347 431.257 241.3 434.453 241.331 439.249C241.361 444.044 244.558 446.607 249.535 447.421C253.878 446.667 257.317 444.285 257.407 439.49ZM298.398 336.712C293.21 336.682 289.983 339.909 290.043 345.096C290.103 349.861 293.24 352.967 298.006 353.027C303.254 353.118 305.909 349.71 306.542 344.704C305.758 339.939 303.194 336.712 298.368 336.682L298.398 336.712ZM249.535 383.698C244.679 383.547 241.542 386.472 241.119 391.237C240.667 396.485 243.683 399.862 248.841 400.285C254.119 400.707 256.925 397.42 257.89 392.383C257.407 387.226 254.813 383.849 249.565 383.698H249.535ZM163.391 488.165C163.571 483.309 160.646 480.143 155.91 479.69C150.662 479.178 147.254 482.193 146.801 487.35C146.349 492.628 149.636 495.463 154.643 496.428C159.801 495.975 163.179 493.412 163.391 488.165ZM201.938 430.744C196.69 430.985 193.674 434.182 193.885 439.46C194.066 444.707 197.323 447.693 202.572 447.542C207.88 447.361 210.414 444.014 210.866 438.163C209.841 433.911 207.337 430.503 201.968 430.774L201.938 430.744ZM50.8541 535.362C50.9747 540.157 54.0211 543.233 58.817 543.383C64.0351 543.534 67.3228 540.458 67.4435 535.241C67.5641 529.963 64.1859 527.309 59.0884 526.616C53.991 527.37 50.7032 530.084 50.8541 535.392V535.362ZM353.505 106.457C353.867 101.27 350.73 97.832 345.572 97.6812C340.384 97.5304 337.157 100.818 337.187 106.005C337.187 110.83 340.445 113.393 345.09 114.177C349.885 113.725 353.173 111.192 353.505 106.457ZM3.58936 535.392C3.83069 540.639 7.02789 543.655 12.3063 543.444C17.5546 543.263 20.5407 540.006 20.3899 534.758C20.2089 529.451 16.8608 526.917 11.0093 526.465C6.78656 527.49 3.34802 529.993 3.61951 535.362L3.58936 535.392ZM298.519 287.675C293.27 287.494 290.013 290.48 289.832 295.758C289.651 301.005 292.637 304.232 297.885 304.443C303.194 304.654 305.969 301.488 306.753 296.451C306.361 291.234 303.827 287.856 298.519 287.706V287.675ZM298.941 193.161C293.301 192.799 289.741 195.634 289.56 201.454C289.379 207.184 292.486 210.411 298.247 210.411C303.616 210.411 306.361 207.365 306.904 202.238C306.753 196.9 304.28 193.493 298.911 193.161H298.941ZM298.458 3.04596C293.15 2.92529 289.892 5.76013 289.711 11.0981C289.5 16.8281 292.607 20.0851 298.368 20.0851C303.737 20.0851 306.391 16.8582 306.874 11.6409C306.482 6.39349 303.857 3.19672 298.489 3.04596H298.458ZM58.636 477.519C53.3274 477.76 50.4016 480.836 50.3715 486.144C50.3715 491.874 53.4782 495.071 59.2091 495.041C65.0003 495.041 67.7451 491.633 68.0166 485.631C67.353 480.414 64.4272 477.247 58.636 477.519ZM116.488 487.803C116.337 482.465 113.321 479.449 108.012 479.449C102.221 479.449 99.2046 482.827 99.4761 488.526C99.7174 493.895 103.126 496.367 109.128 496.609C113.351 495.764 116.639 493.231 116.488 487.803ZM155.85 430.533C150.209 430.171 146.65 433.006 146.469 438.826C146.288 444.556 149.395 447.783 155.156 447.783C160.525 447.783 163.27 444.737 163.813 439.61C163.662 434.273 161.189 430.865 155.82 430.533H155.85ZM202.391 383.245C197.112 383.155 193.855 385.93 193.523 391.237C193.161 396.847 195.936 400.435 201.697 400.737C207.367 401.039 210.535 398.023 211.108 392.353C210.866 386.714 208.182 383.336 202.391 383.215V383.245ZM306.753 248.953C306.753 243.645 303.797 240.509 298.489 240.418C292.727 240.328 289.591 243.555 289.741 249.285C289.892 254.653 293.18 257.216 299.031 257.578C303.496 256.854 306.813 254.351 306.783 248.923L306.753 248.953ZM298.368 97.0479C293.089 96.9573 289.832 99.7319 289.47 105.04C289.108 110.649 291.883 114.238 297.644 114.539C303.315 114.841 306.482 111.825 307.055 106.156C306.813 100.516 304.129 97.1383 298.338 97.0177L298.368 97.0479ZM258.041 344.915C258.01 339.155 254.783 336.079 249.052 336.229C243.713 336.38 240.788 339.456 240.788 344.794C240.788 350.615 244.136 353.359 249.776 353.6C255.024 353.058 258.071 350.283 258.041 344.915ZM289.651 57.5713C289.108 63.1806 291.732 66.8599 297.553 67.2821C302.772 67.6741 306.27 65.1409 306.813 59.7728C307.386 54.1332 304.612 50.7858 298.82 49.9112C293.783 50.0319 290.164 52.1429 289.651 57.5713ZM298.096 145.873C292.788 145.904 289.681 148.859 289.47 154.137C289.259 159.806 292.185 163.214 297.946 163.365C303.676 163.516 306.663 160.349 307.085 154.679C306.723 149.04 303.827 145.813 298.066 145.843L298.096 145.873ZM249.112 287.133C243.412 287.283 240.365 290.661 240.516 296.331C240.667 302.031 244.045 305.076 249.716 304.926C255.447 304.775 258.191 301.337 258.433 295.758C257.89 290.088 254.813 286.982 249.143 287.133H249.112ZM12.0651 477.338C6.39447 477.338 3.1369 480.504 3.10675 486.174C3.0766 491.844 6.2738 495.071 11.9443 495.131C17.6451 495.161 20.5709 491.904 20.9931 486.295C20.6312 480.685 17.7657 477.368 12.0349 477.338H12.0651ZM117.242 439.49C117.423 433.669 113.803 429.9 107.952 429.839C102.522 429.779 98.903 433.307 98.722 438.706C98.5109 444.556 102.221 447.783 107.922 448.537C113.441 447.904 117.061 444.918 117.242 439.49ZM249.082 239.423C243.683 239.574 240.094 243.162 239.973 248.561C239.853 254.381 243.532 258.211 249.324 258.302C255.145 258.392 258.282 254.502 259.066 248.651C258.101 243.072 254.964 239.272 249.112 239.423H249.082ZM211.53 345.277C211.741 339.456 208.152 335.656 202.3 335.566C196.871 335.476 193.221 339.004 193.01 344.372C192.769 350.223 196.449 353.48 202.27 354.264C207.609 353.631 211.319 350.675 211.53 345.277ZM155.247 382.522C149.817 382.431 146.138 385.899 145.715 391.237C145.293 397.088 148.882 401.008 154.613 401.37C160.435 401.732 163.752 397.993 164.808 391.931C164.054 386.593 161.128 382.612 155.247 382.522ZM260.363 12.0631C260.635 6.24268 257.045 2.41266 251.224 2.26184C245.795 2.11108 242.115 5.60938 241.843 11.0076C241.542 16.8582 245.191 20.1454 250.983 20.9597C256.412 20.3867 260.122 17.4614 260.363 12.0631ZM251.163 49.2175C245.734 49.1271 242.054 52.6555 241.692 57.9935C241.3 63.8441 244.92 67.7646 250.651 68.0662C256.472 68.3979 259.76 64.6282 260.725 58.8077C260.061 53.1381 256.985 49.308 251.133 49.2175H251.163ZM249.444 192.105C243.683 192.105 240.214 195.785 239.732 201.515C239.279 206.672 244.679 211.979 249.836 211.436C255.597 210.833 258.614 207.245 259.277 201.575C258.372 195.875 255.235 192.075 249.444 192.105ZM58.9678 448.748C64.7289 448.869 68.2277 445.22 68.8611 439.52C69.4342 434.363 64.1255 428.995 58.9376 429.417C53.1464 429.9 50.0699 433.458 49.3158 439.128C50.1 444.798 53.1766 448.658 58.9678 448.778V448.748ZM251.375 144.908C245.583 145.089 242.085 148.467 241.391 154.167C240.788 159.294 246.066 164.722 251.254 164.33C257.045 163.908 260.122 160.349 260.876 155.132C260.906 149.764 256.291 144.758 251.375 144.908ZM202.722 286.258C196.569 286.047 192.618 289.847 192.528 295.999C192.437 301.759 196.147 305.529 201.848 305.77C208.061 306.011 211.349 302.061 212.254 296.12C211.5 290.359 208.453 286.469 202.692 286.258H202.722ZM250.922 115.444C256.683 115.565 260.182 111.916 260.816 106.216C261.389 101.059 256.08 95.6907 250.892 96.113C245.101 96.5955 242.024 100.154 241.27 105.824C242.054 111.493 245.131 115.354 250.922 115.474V115.444ZM12.8191 429.357C6.6358 428.935 2.62415 432.644 2.29236 438.736C1.99072 444.496 5.61029 448.386 11.2808 448.839C17.4943 449.321 20.8725 445.431 22.079 439.158C21.3853 433.85 18.5801 429.749 12.7889 429.357H12.8191ZM192.437 249.375C192.708 255.105 196.388 258.754 202.18 258.754C208.363 258.754 212.193 254.984 212.163 248.802C212.163 242.589 208.091 239.453 202.029 238.79C196.026 239.815 192.135 243.132 192.437 249.375ZM155.277 334.963C149.486 334.872 145.715 338.401 145.293 344.101C144.841 350.283 148.49 354.294 154.613 354.686C160.827 355.078 164.175 351.158 165.291 344.794C164.476 339.215 161.52 335.083 155.247 334.963H155.277ZM117.755 392.745C118.177 386.563 114.467 382.552 108.344 382.22C102.583 381.888 98.6918 385.538 98.2394 391.207C97.7568 397.42 101.648 400.797 107.922 402.004C113.23 401.31 117.332 398.505 117.724 392.715L117.755 392.745ZM192.407 11.5505C192.377 17.3408 195.966 21.0803 201.697 21.3819C207.88 21.7136 211.862 18.0344 212.163 11.9124C212.465 5.69983 208.514 2.41266 202.481 1.41742C196.449 2.14124 192.467 5.30774 192.437 11.5203L192.407 11.5505ZM69.1627 392.021C69.1325 385.839 65.3924 382.039 59.2393 382.009C53.0861 382.009 49.2856 385.779 49.2253 391.931C49.1649 398.174 53.1464 401.34 59.571 402.215C65.0606 401.25 69.2231 398.264 69.1929 391.991L69.1627 392.021ZM201.999 48.7048C195.845 48.916 192.135 52.7762 192.316 58.9586C192.497 65.1107 196.388 68.79 202.572 68.6392C208.785 68.4884 211.862 64.4472 212.465 58.3553C211.47 52.3841 208.212 48.4636 201.999 48.7048ZM202.27 95.7511C196.057 95.7813 192.528 99.4002 192.166 105.613C191.834 111.524 196.78 116.349 202.692 115.927C208.966 115.474 211.982 111.705 212.525 105.552C211.711 99.5811 208.544 95.7209 202.24 95.7812L202.27 95.7511ZM118.056 345.397C118.358 339.185 114.919 335.445 108.736 334.752C102.854 334.088 97.787 338.793 97.8774 344.704C97.968 351.007 101.618 354.204 107.529 355.078C113.743 354.626 117.724 351.61 118.026 345.367L118.056 345.397ZM12.5175 381.768C6.54529 381.527 1.83997 385.99 1.80981 391.931C1.80981 397.902 6.42462 402.516 12.3969 402.185C18.6707 401.823 21.7473 398.113 22.26 393.167C22.2902 386.382 18.1277 381.979 12.5175 381.738V381.768ZM202.572 191.683C196.328 191.743 192.708 195.091 192.196 201.303C191.683 207.184 196.509 212.16 202.421 211.919C208.725 211.648 211.832 207.968 212.435 202.962C212.495 196.297 208.152 191.653 202.572 191.713V191.683ZM192.166 154.378C192.226 160.621 195.574 164.24 201.787 164.752C207.669 165.265 212.646 160.44 212.405 154.529C212.133 148.226 208.453 145.119 203.446 144.516C196.78 144.456 192.135 148.799 192.196 154.378H192.166ZM165.23 296.391C165.2 290.148 161.852 286.529 155.639 285.987C149.757 285.474 144.78 290.269 144.991 296.18C145.233 302.483 148.943 305.589 153.919 306.222C160.585 306.283 165.23 301.97 165.2 296.421L165.23 296.391ZM144.931 10.8267C144.358 16.7678 148.852 21.6232 154.764 21.8041C160.736 21.985 165.472 17.4915 165.321 11.5203C165.14 5.24744 161.49 2.08087 155.609 1.26666C149.365 1.65869 145.564 4.61414 144.931 10.8267ZM165.411 249.496C165.864 243.404 161.339 238.578 155.277 238.639C148.973 238.729 145.353 242.077 144.841 248.35C144.358 254.441 148.913 259.146 156.121 259.237C161.158 258.845 164.959 255.799 165.411 249.465V249.496ZM48.7728 345.156C49.0745 351.399 52.5432 354.927 58.7868 355.289C64.8797 355.651 69.4945 351.127 69.585 345.066C69.6755 338.974 65.2115 334.45 59.1186 334.48C53.0258 334.48 48.4712 339.064 48.7728 345.156ZM154.583 48.343C148.339 48.8255 144.78 52.3842 144.78 58.6569C144.78 65.352 148.581 68.9709 155.247 69.1217C161.339 69.2424 165.713 64.5377 165.532 58.4157C165.351 52.4143 160.616 47.9208 154.553 48.3731L154.583 48.343ZM118.388 296.12C118.267 289.847 114.889 286.228 108.646 285.685C102.613 285.172 97.787 289.605 97.5457 295.607C97.3044 301.669 101.678 306.373 107.71 306.494C113.803 306.615 118.478 302.181 118.358 296.12H118.388ZM155.548 191.351C148.912 191.14 144.901 194.729 144.69 201.394C144.479 208.029 148.068 212.009 154.734 212.251C161.4 212.492 164.989 208.783 165.743 202.238C165.442 195.664 162.275 191.532 155.548 191.321V191.351ZM144.66 105.462C144.479 112.097 148.038 116.108 154.734 116.319C161.37 116.53 165.351 112.941 165.592 106.276C165.834 99.6113 162.124 96.0225 155.186 95.2082C149.063 95.6606 144.841 98.6764 144.66 105.462ZM118.599 11.8822C118.75 5.3078 115.13 1.44757 108.495 0.965027C102.07 0.512695 97.1234 5.3078 97.3647 11.7314C97.606 18.3963 101.376 21.8041 107.922 22.347C114.467 21.8946 118.448 18.5772 118.599 11.9124V11.8822ZM165.623 154.257C165.381 147.562 161.37 143.973 154.764 144.215C148.068 144.456 144.509 148.467 144.72 155.071C144.931 161.797 149.033 164.963 155.639 165.265C162.184 164.511 165.894 160.922 165.653 154.257H165.623ZM22.652 344.945C22.652 338.341 18.9421 334.601 12.3063 334.269C5.88171 333.937 1.02557 338.853 1.41766 345.277C1.80975 351.942 5.67053 355.229 12.1857 355.651C18.7611 355.078 22.652 351.61 22.652 344.975V344.945ZM96.7313 58.5062C96.6106 64.3869 101.919 69.8757 107.831 70.0265C113.713 70.1471 119.202 64.8393 119.353 58.9283C119.474 53.0476 114.165 47.5589 108.253 47.4081C102.372 47.2875 96.8821 52.5952 96.7313 58.5062ZM119.112 248.983C118.81 242.529 115.07 238.639 108.706 237.855C102.854 237.131 97.1837 242.499 96.8821 248.47C96.6106 254.381 101.799 259.93 107.771 260.081C113.713 260.232 119.383 254.924 119.112 248.983ZM48.1394 296.572C48.803 302.965 52.6638 306.735 59.1186 307.157C65.0606 307.549 70.4296 301.94 70.3692 295.999C70.3089 290.028 64.8495 284.78 58.9075 284.961C52.9353 285.142 47.506 290.751 48.1394 296.602V296.572ZM108.253 190.507C102.372 190.386 96.8821 195.694 96.7313 201.605C96.6106 207.486 101.889 212.974 107.831 213.125C113.713 213.246 119.202 207.938 119.353 202.027C119.474 196.146 114.165 190.658 108.253 190.507ZM11.9142 284.66C6.03253 284.75 0.693726 290.148 0.633423 296.029C0.603271 302.211 6.51514 307.881 12.6381 307.519C18.5198 307.157 23.7078 301.518 23.4966 295.728C23.2855 289.817 17.7959 284.569 11.9142 284.66ZM47.7775 11.3997C47.6568 17.2503 52.9051 22.7692 58.817 23.0104C64.9701 23.2517 70.7915 17.5217 70.6407 11.3394C70.4899 5.42841 65.0606 0.150818 59.1789 0.150818C53.2972 0.150818 47.8981 5.48871 47.7775 11.3997ZM108.284 94.4241C102.462 94.2733 96.8821 99.4907 96.6106 105.371C96.309 111.524 102.01 117.344 108.193 117.254C114.075 117.163 119.414 111.765 119.444 105.884C119.444 100.003 114.165 94.5749 108.284 94.4241ZM108.464 143.25C102.673 142.978 97.0027 148.105 96.6106 154.016C96.1884 160.108 101.829 166.079 108.012 166.079C113.894 166.079 119.323 160.801 119.474 154.891C119.625 149.04 114.407 143.521 108.495 143.219L108.464 143.25ZM70.701 249.677C71.1535 243.585 65.7242 237.613 59.5107 237.402C53.7195 237.221 48.1093 242.288 47.6568 248.169C47.2044 254.261 52.6336 260.232 58.8471 260.443C64.6383 260.624 70.2486 255.557 70.701 249.677ZM12.1555 0.0301514C5.39911 0.301575 1.3573 4.25226 0.512756 10.8568C-0.271423 16.8582 5.3689 22.8898 11.5221 23.1914C17.5848 23.493 23.4665 18.0344 23.6776 11.8822C23.8586 5.76019 18.3087 -0.241272 12.1555 0.0301514ZM58.7566 47.1668C52.0907 47.8303 48.1093 51.8413 47.6266 58.5363C47.2044 64.6584 53.0559 70.3582 59.2091 70.328C65.3623 70.328 70.9423 64.598 70.7915 58.476C70.6407 52.3238 64.7892 46.5637 58.7265 47.1668H58.7566ZM23.7379 249.375C23.9792 243.464 19.0929 237.885 13.1207 237.282C6.93744 236.648 0.874695 241.775 0.361938 248.078C-0.150818 254.291 5.09747 260.262 11.4014 260.624C17.6149 261.016 23.4966 255.648 23.7379 249.375ZM47.4759 202.057C47.6267 208.029 52.8448 213.276 58.817 213.487C65.0908 213.698 70.7915 208.24 70.882 201.937C70.9725 195.664 65.4226 190.055 59.1186 190.085C52.8146 190.115 47.3251 195.754 47.4759 202.057ZM47.3853 106.246C47.5965 112.549 53.2671 117.857 59.571 117.615C65.875 117.404 71.1836 111.735 70.9423 105.432C70.7312 99.1287 65.0606 93.821 58.7566 94.0623C52.4527 94.2734 47.144 99.943 47.3853 106.246ZM12.6381 46.8652C6.24365 46.5335 0.633423 51.5096 0.211121 57.8729C-0.241333 64.5981 5.09747 70.4185 11.8539 70.509C18.2785 70.5995 23.6776 65.4726 23.8887 59.0792C24.0999 52.6555 19.0627 47.1668 12.6683 46.8351L12.6381 46.8652ZM58.998 142.858C52.6638 142.948 47.2949 148.497 47.3853 154.83C47.4758 161.163 53.0258 166.531 59.3599 166.441C65.694 166.351 71.063 160.801 70.9725 154.468C70.882 148.135 65.3321 142.767 58.998 142.858ZM12.0349 189.874C5.09747 189.874 -0.0905151 195.242 0.120667 202.178C0.331787 208.752 5.39911 213.668 12.0047 213.668C18.9421 213.668 24.13 208.3 23.9189 201.364C23.7078 194.789 18.6104 189.874 12.0349 189.874ZM0.0603638 153.533C0.331787 160.108 5.36896 164.903 12.0047 164.933C18.9722 164.933 24.0999 159.746 24.0094 152.779C23.9189 145.843 18.6103 140.777 11.6428 140.958C4.73553 141.139 -0.271484 146.537 0.0301514 153.533H0.0603638ZM11.4618 93.821C4.88635 94.0924 0.0905151 99.1287 0.0603638 105.733C0.0603638 112.7 5.24829 117.857 12.1857 117.766C19.123 117.676 24.1904 112.398 24.0094 105.432C23.8284 98.5256 18.4293 93.5194 11.4618 93.821Z" fill="white" fill-opacity="0.19"/>
</svg>
