<svg id="Faq-img" xmlns="http://www.w3.org/2000/svg" width="443.757" height="409.394" viewBox="0 0 443.757 409.394">
  <g id="Group_96" data-name="Group 96" transform="translate(-2764.251 -1078.703)">
    <path id="Path_863" data-name="Path 863" d="M2993.8,1312.094s3.294,32.668,30.559,40.775,42,2.948,58.215-14c0,0-4.421,33.161-22.844,45.688,0,0,43.477-5.287,57.478-50.542,0,0,42-3.006,44.214-41.816,0,0,40.53-13.756,45.688-50.6s-12.527-47.9-36.108-61.9c0,0,9.45-21.14-17.3-42.14-18.75-11-40.915.873-40.915.873s-10.317-36.108-60.426-37.581c-15.475,0-40.229,15.474-42.59,32.423,0,0-29.406-17.685-56.413,1.474s-19.226,54.531-10.221,70.742c0,0-28.916,28-13.271,67.8S2993.8,1312.094,2993.8,1312.094Z" fill="#9bc33d"/>
    <g id="Group_95" data-name="Group 95">
      <path id="Path_864" data-name="Path 864" d="M3075.524,1268.81h-36.672v-3.667q0-9.36,2.123-15.2a33.672,33.672,0,0,1,6.321-10.664q4.2-4.824,18.867-16.986,7.818-6.369,7.817-11.677t-3.136-8.251q-3.138-2.943-9.506-2.944a15.28,15.28,0,0,0-11.339,4.537q-4.489,4.536-5.743,15.827l-37.445-4.633q1.929-20.65,15.007-33.247t40.1-12.593q21.037,0,33.97,8.781,17.565,11.871,17.564,31.655a30.543,30.543,0,0,1-4.535,15.827q-4.537,7.625-18.53,18.626-9.749,7.722-12.3,12.4T3075.524,1268.81Zm-20.6,9.747h4.633a17.323,17.323,0,0,1,17.323,17.323h0a17.323,17.323,0,0,1-17.323,17.323h-4.633a17.323,17.323,0,0,1-17.323-17.323h0A17.323,17.323,0,0,1,3054.92,1278.557Z" fill="#fff"/>
    </g>
  </g>
  <g id="Group_97" data-name="Group 97" transform="translate(-2764.251 -1078.703)">
    <path id="Path_865" data-name="Path 865" d="M2949.676,1446.514s-27.888-.005-49.888,0-25,11.4-13,12.954,37,9.051,25,12.551-14.5,15,5,15.5,118,1,134,0,7.79-14.5-11.6-14-10.44-5.93,20.083-6.215,52.522-17.575,16.522-18.68S2949.676,1446.514,2949.676,1446.514Z" fill="#e9e9f8"/>
    <path id="Path_866" data-name="Path 866" d="M2957.834,1457.5s-8.7-1.965-12.382,0-.8,10.264,18.759,7.343Z" fill="#4a3751"/>
    <path id="Path_867" data-name="Path 867" d="M3003.813,1457.5s8.7-1.965,12.382,0,.8,10.264-18.759,7.343Z" fill="#4a3751"/>
    <path id="Path_868" data-name="Path 868" d="M2944.961,1439.077s-8.6-1.965-7.123,8.6c1.473,6.878,26.373,17.169,26.373,17.169v-20.728Z" fill="#577194"/>
    <path id="Path_869" data-name="Path 869" d="M2975.665,1392.5v6.058s4.756,6,10.423,0V1392.5S2979.121,1386.346,2975.665,1392.5Z" fill="#ffaa79"/>
    <path id="Path_870" data-name="Path 870" d="M3018.282,1439.077s8.6-1.965,7.124,8.6c-1.474,6.878-26.373,17.169-26.373,17.169v-20.728Z" fill="#577194"/>
    <path id="Path_871" data-name="Path 871" d="M2998.292,1401.741l-8.321-3.091a25.482,25.482,0,0,0-17.745,0l-8.322,3.091s-12.036,6.632-2.211,40.775c0,0,5.895,5.158,19.4,5.158s19.405-5.158,19.405-5.158C3010.329,1408.373,2998.292,1401.741,2998.292,1401.741Z" fill="#7774f1"/>
    <path id="Path_872" data-name="Path 872" d="M2975.307,1357.359s-6.053-1.78-8.9,2.136,0,9.079,0,9.079-4.451.89-5.163,6.409,3.383,7.3,3.383,7.3a7.734,7.734,0,0,0,.356,8.189c1.78,2.493,7.655,0,7.655,0a3.935,3.935,0,0,0,2.67,3.205c2.493.89,4.807-1.958,4.807-1.958s3.026,4.083,9.079,2.13,5.163-6.937,5.163-6.937,4.45.89,6.587-2.671-1.6-7.833-1.6-7.833a12.258,12.258,0,0,0,0-10.147c-2.493-5.341-6.409-3.382-6.409-3.382s.534-5.163-2.671-6.943-6.943,2.314-6.943,2.314.178-5.218-3.738-5.163C2975.439,1353.144,2975.307,1357.359,2975.307,1357.359Z" fill="#55384c"/>
    <path id="Path_873" data-name="Path 873" d="M2961.693,1442.516s-1.2,11.3,0,18.668,19.13,8.106,27.728,7.615,14.8-3.93,11.082-26.283C3000.5,1442.516,2981.381,1452.222,2961.693,1442.516Z" fill="#617ba1"/>
    <path id="Path_874" data-name="Path 874" d="M2963.493,1416.377s.6,11.706,2.237,27.936" fill="none" stroke="#5757c0" stroke-miterlimit="10" stroke-width="0.75"/>
    <path id="Path_875" data-name="Path 875" d="M2998.555,1416.311s-.6,11.707-2.237,27.937" fill="none" stroke="#5757c0" stroke-miterlimit="10" stroke-width="0.75"/>
    <ellipse id="Ellipse_21" data-name="Ellipse 21" cx="10.333" cy="2.967" rx="10.333" ry="2.967" transform="translate(2865.122 1468.919)" fill="#e9e9f8"/>
    <ellipse id="Ellipse_22" data-name="Ellipse 22" cx="13.5" cy="3.033" rx="13.5" ry="3.033" transform="translate(3098.455 1462.852)" fill="#e9e9f8"/>
    <path id="Path_876" data-name="Path 876" d="M3081.788,1482.185c0,.553-1.94,1-4.333,1s-4.333-.447-4.333-1,1.94-1,4.333-1S3081.788,1481.633,3081.788,1482.185Z" fill="#e9e9f8"/>
    <ellipse id="Ellipse_23" data-name="Ellipse 23" cx="5" cy="1.018" rx="5" ry="1.018" transform="translate(2852.122 1449.852)" fill="#e9e9f8"/>
    <path id="Path_877" data-name="Path 877" d="M2848.455,1473.369c0,.819-1.866,1.483-4.167,1.483s-4.166-.664-4.166-1.483,1.865-1.484,4.166-1.484S2848.455,1472.549,2848.455,1473.369Z" fill="#e9e9f8"/>
  </g>
  <g id="Group_98" data-name="Group 98" transform="translate(-2764.251 -1078.703)">
    <circle id="Ellipse_24" data-name="Ellipse 24" cx="5.25" cy="5.25" r="5.25" transform="translate(2791.288 1127.07)" fill="#e9e9f8"/>
    <circle id="Ellipse_25" data-name="Ellipse 25" cx="8.028" cy="8.028" r="8.028" transform="translate(2921.381 1082.637)" fill="#e9e9f8"/>
    <circle id="Ellipse_26" data-name="Ellipse 26" cx="6.388" cy="6.388" r="6.388" transform="translate(2947.49 1321.25)" fill="#e9e9f8"/>
    <circle id="Ellipse_27" data-name="Ellipse 27" cx="3" cy="3" r="3" transform="translate(3148.788 1370.731)" fill="#e9e9f8"/>
    <path id="Path_878" data-name="Path 878" d="M2844.056,1378.306a3.934,3.934,0,1,1-3.934-3.935A3.934,3.934,0,0,1,2844.056,1378.306Z" fill="#e9e9f8"/>
    <path id="Path_879" data-name="Path 879" d="M3133.325,1082.637a3.935,3.935,0,1,1-3.935-3.934A3.935,3.935,0,0,1,3133.325,1082.637Z" fill="#e9e9f8"/>
  </g>
  <g id="Group_100" data-name="Group 100" transform="translate(-2764.251 -1078.703)">
    <path id="Path_880" data-name="Path 880" d="M2920.342,1143.855l-126.506,33.683a39.819,39.819,0,0,0-28.234,48.725l23.133,86.885a39.818,39.818,0,0,0,46.426,28.768c11.17,15.911,31.139,23.627,29.087,20.769a53.221,53.221,0,0,1-9.745-25.84l109.463-29.146a39.82,39.82,0,0,0,28.235-48.725l-23.134-86.885A39.819,39.819,0,0,0,2920.342,1143.855Z" fill="#0073a1"/>
    <g id="Group_99" data-name="Group 99">
      <path id="Path_881" data-name="Path 881" d="M2896.748,1265.984l-27.928,8.438-.844-2.793a36.073,36.073,0,0,1-1.88-12.064,26.808,26.808,0,0,1,2.36-9.575q2.088-4.641,10.46-17.277,4.488-6.649,3.267-10.691a8.57,8.57,0,0,0-4.287-5.562q-3.066-1.519-7.917-.055a12.16,12.16,0,0,0-7.591,6.064q-2.375,4.488-.732,13.374l-29.582,5.088q-3.282-16.172,3.779-28.772t27.639-18.817q16.022-4.841,27.891-1.128,16.107,5,20.659,20.065a24.288,24.288,0,0,1,.188,13.1q-1.7,6.852-9.826,18.448-5.648,8.124-6.517,12.276A20.181,20.181,0,0,0,2896.748,1265.984Zm-13.448,12.164,3.528-1.066a13.78,13.78,0,0,1,17.178,9.206h0a13.782,13.782,0,0,1-9.207,17.178l-3.528,1.066a13.782,13.782,0,0,1-17.178-9.206h0A13.782,13.782,0,0,1,2883.3,1278.148Z" fill="#fff"/>
    </g>
  </g>
</svg>
