<svg xmlns="http://www.w3.org/2000/svg" width="427.655" height="100.638" viewBox="0 0 427.655 100.638">
  <g id="hhcl_Logo" transform="translate(0.009 0.024)">
    <path id="Path_1" data-name="Path 1" d="M241.14,362.86h9.22l.36.36v13.06l.36.48h8.15l.36-.36V363.22l.36-.36h9.23l.36.36v34.5a.9.9,0,0,1-1,1.08h-8a.9.9,0,0,1-1-1.08v-13.3A.64.64,0,0,0,259,384h-7.91l-.36.36v13.3c0,.79-.28,1.19-.83,1.19h-8.24a.9.9,0,0,1-1-1.08V363.94a1,1,0,0,1,.47-1.08h0Zm32.52,0h20.73l.35.36v5.4a.74.74,0,0,1-.83.83H282.05a.63.63,0,0,0-.72.72v6.23l.36.36h10.06a.86.86,0,0,1,1.08.83v5.15a.63.63,0,0,1-.72.72H282.05a.63.63,0,0,0-.72.72v6q0,2,3.12,2h10.06a.75.75,0,0,1,.84.84v5.39l-.36.36H279.53a8.45,8.45,0,0,1-5.15-3.59,10.61,10.61,0,0,1-1.19-4.68V364.3c0-1,.16-1.44.47-1.44Zm26.11,0h22.65l.36.36v5.63a.88.88,0,0,1-.84,1h-5.85a.74.74,0,0,0-.83.84v27.19c0,.64-.24,1-.72,1h-7.19c-.56,0-.83-.4-.83-1.19v-27.4l-.67-.48h-5.68c-.79,0-1.19-.23-1.19-.55V363.7a.84.84,0,0,1,.83-.84h0Zm27.07,0h20.73l.35.36v5.4a.74.74,0,0,1-.83.83H335.23a.63.63,0,0,0-.72.72v6.23l.36.36h10.06a.86.86,0,0,1,1.08.83v5.15a.63.63,0,0,1-.72.72H335.23a.63.63,0,0,0-.72.72v6q0,2,3.12,2h10.06a.75.75,0,0,1,.84.84v5.39l-.36.36H332.72a8.45,8.45,0,0,1-5.15-3.59,10.61,10.61,0,0,1-1.19-4.68V364.3c0-1,.16-1.44.47-1.44h0Zm25.64,0h16.29a9,9,0,0,1,5,3.12q1.44,1.61,1.44,6v2.76c0,2.73-.48,4.52-1.44,5.39l-.47.6v.24a6.9,6.9,0,0,1,2,5.27V398.1a1,1,0,0,1-1,.72h-6.71a.9.9,0,0,1-1-1.08V386.1q-.36-2-2-2h-3.35l-.48.48v12.94c0,.88-.32,1.32-1,1.32H353a1.1,1.1,0,0,1-1-1.08l-.07-34.5.36-.36h0Zm8.38,7.31v7.07l.36.36h3.71c.94,0,1.55-.72,1.8-2.15v-3.84a2.23,2.23,0,0,0-2.4-1.92h-3l-.48.48h0Zm24-7.31h11.86a8.38,8.38,0,0,1,4.19,2.52,7.87,7.87,0,0,1,1.8,4.07l.12,3.24V388q0,6.34-1,6.35a9.07,9.07,0,0,1-3.84,4l-1.32.48H384.83a9.34,9.34,0,0,1-5.27-4.43,8.23,8.23,0,0,1-.6-3.59v-20q0-6,5.87-7.91h0Zm2.87,8.51v18c0,1.51.48,2.27,1.44,2.27q4.55.25,4.55-1.19l.12-1.08V371.72a1.65,1.65,0,0,0-1.44-2h-3.59a1.38,1.38,0,0,0-1.08,1.68h0ZM241.14,406.71h9.22l.36.36v13.06l.36.48h8.15l.36-.36V407.07l.36-.36h9.23l.36.36v34.5a.9.9,0,0,1-1,1.08h-8a.9.9,0,0,1-1-1.08v-13.3a.64.64,0,0,0-.72-.47h-7.91l-.36.36v13.3c0,.79-.28,1.19-.83,1.19h-8.24a.9.9,0,0,1-1-1.08V407.79a1,1,0,0,1,.47-1.08h.19Zm32.52,0h20.73l.35.36v5.4a.74.74,0,0,1-.83.83H282.05a.63.63,0,0,0-.72.72v6.23l.36.36h10.06a.86.86,0,0,1,1.08.83v5.15a.63.63,0,0,1-.72.72H282.05a.63.63,0,0,0-.72.72v6q0,2,3.12,2h10.06a.75.75,0,0,1,.84.84v5.39l-.36.36H279.53a8.45,8.45,0,0,1-5.15-3.59,10.61,10.61,0,0,1-1.19-4.68v-26.2c0-1,.16-1.44.47-1.44Zm32.94,0h12.58c.75,0,1.23,1.32,1.44,4l6.23,31.5a.65.65,0,0,1-.72.48H318.7c-.64,0-1-1-1.2-2.88q-.78-5.16-1.19-5.63h-6.83q-.45,0-1.56,8l-.47.48H299.3l-.36-.36q3.47-17.57,5.15-27.79l1.55-7.31a1.45,1.45,0,0,1,1-.48h0Zm3.12,20.73.12.11h4.55l.25-.24-2.28-12.7-.11-.11h-.12q-.55,0-1.1,4.19a78.6,78.6,0,0,0-1.29,8.75h0Zm21.21-20.73h8.87q.84,0,.84,1.56v25.52a1.55,1.55,0,0,0,1.68,1.68h12.46a1.08,1.08,0,0,1,1.32,1.08v5.75l-.36.36H338q-2.64-.31-5.76-3.12a9,9,0,0,1-1.79-4.91V407.79a1,1,0,0,1,.47-1.08h0Zm22.72,0H376.3l.36.36v5.63a.88.88,0,0,1-.84,1h-5.85a.74.74,0,0,0-.83.84V441.7c0,.64-.24,1-.72,1h-7.19c-.56,0-.83-.4-.83-1.19V414.15l-.67-.48H354c-.79,0-1.19-.23-1.19-.55v-5.56a.84.84,0,0,1,.83-.84h0Zm27.07,0h9.22l.36.36v13.06l.36.48h8.15l.36-.36V407.07l.36-.36h9.23l.36.36v34.5a.9.9,0,0,1-1,1.08h-8a.9.9,0,0,1-1-1.08v-13.3a.64.64,0,0,0-.72-.47h-7.91l-.36.36v13.3c0,.79-.28,1.19-.83,1.19h-8.1a.9.9,0,0,1-1-1.08V407.79a1,1,0,0,1,.47-1.08h0Zm40.21,0h13.53a1.08,1.08,0,0,1,1.08,1.32v5a1.17,1.17,0,0,1-1.32,1.32H423a.83.83,0,0,0-1,1v18.6a1.31,1.31,0,0,0,1.19,1.29h11.29a.86.86,0,0,1,1.08.83v5.63c0,.64-.24,1-.72,1H419.48a9.16,9.16,0,0,1-4.43-2.52,8.7,8.7,0,0,1-2.27-6.11V414.55a8.56,8.56,0,0,1,2.27-5.27,8.33,8.33,0,0,1,5.51-2.4l.36-.12h0Zm25.88,0h12.58c.75,0,1.23,1.32,1.44,4l6.23,31.5a.65.65,0,0,1-.72.48H458.9c-.64,0-1-1-1.2-2.88q-.78-5.16-1.19-5.63h-6.83q-.45,0-1.56,8l-.47.48H439.5l-.36-.36q3.47-17.57,5.15-27.79l1.55-7.31a1.45,1.45,0,0,1,1-.48h0Zm3.12,20.73.12.11h4.55l.25-.24-2.28-12.7-.11-.11h-.12q-.55,0-1.1,4.19a78.613,78.613,0,0,0-1.29,8.75h0ZM471,406.71h16.3a9,9,0,0,1,5,3.12q1.43,1.61,1.44,6v2.76c0,2.73-.48,4.52-1.44,5.39l-.47.6v.24a6.9,6.9,0,0,1,2,5.27v11.86a1,1,0,0,1-1,.72h-6.71a.9.9,0,0,1-1-1.08V430q-.36-2-2-2h-3.35l-.48.48v12.94c0,.88-.32,1.32-1,1.32h-6.76a1.1,1.1,0,0,1-1-1.08l-.07-34.5.36-.36h0Zm8.38,7.31v7.07l.36.36h3.71c.94,0,1.55-.72,1.8-2.15v-3.84a2.23,2.23,0,0,0-2.4-1.92h-3l-.48.48h0ZM498,406.71h20.73l.35.36v5.4a.74.74,0,0,1-.83.83h-11.9a.63.63,0,0,0-.72.72v6.23l.36.36H516a.86.86,0,0,1,1.08.83v5.15a.63.63,0,0,1-.72.72H506.35a.63.63,0,0,0-.72.72v6q0,2,3.12,2H518.8a.75.75,0,0,1,.84.84v5.39l-.36.36H503.83a8.45,8.45,0,0,1-5.15-3.59,10.61,10.61,0,0,1-1.19-4.68v-26.2c0-1,.16-1.44.47-1.44h0Z" transform="translate(-92 -346)" fill="#fff"/>
    <path id="Path_2" data-name="Path 2" d="M219.08,397.32a5.38,5.38,0,1,0-5.17,5.58,5.38,5.38,0,0,0,5.17-5.58Z" transform="translate(-92 -346)" fill="#fff" fill-rule="evenodd"/>
    <path id="Path_3" data-name="Path 3" d="M216.39,376.58a5.38,5.38,0,1,0-.9,7.55,5.38,5.38,0,0,0,.9-7.55Z" transform="translate(-92 -346)" fill="#fff" fill-rule="evenodd"/>
    <path id="Path_4" data-name="Path 4" d="M200.12,409.7a5.38,5.38,0,1,0,7.46-1.48,5.38,5.38,0,0,0-7.46,1.48Z" transform="translate(-92 -346)" fill="#fff" fill-rule="evenodd"/>
    <path id="Path_5" data-name="Path 5" d="M102.75,394.78a5.38,5.38,0,1,0-5.28,5.48,5.38,5.38,0,0,0,5.28-5.48Z" transform="translate(-92 -346)" fill="#fff" fill-rule="evenodd"/>
    <path id="Path_6" data-name="Path 6" d="M102.86,409.29a5.38,5.38,0,1,0-1.05,7.53,5.38,5.38,0,0,0,1.05-7.53Z" transform="translate(-92 -346)" fill="#fff" fill-rule="evenodd"/>
    <path id="Path_7" data-name="Path 7" d="M102.38,376.82a5.38,5.38,0,1,0,7.49-1.33,5.38,5.38,0,0,0-7.49,1.33Z" transform="translate(-92 -346)" fill="#fff" fill-rule="evenodd"/>
    <path id="Path_8" data-name="Path 8" d="M200.94,373.26c-.39,4.24-.4,7.57-.88,10.15-.52,2.79-3.92,9.8-6,14.4a15.5,15.5,0,0,1-.08,1.9c-.42,4.9-3.27,10.85-5.2,15.37-2.47,5.81-6.54,10.81-9.58,16.35-2.31,4.21-6.3,11.08-9.54,13.9-1.69,1.47-3.12,1.36-5.23,1.12a24.758,24.758,0,0,1-7.95-2.09,6,6,0,0,1-3.08-3.58c-1.8-5.24-1-15-5-20.81-4.83-7-4.27-8.27-11.12-13.29-2.25-1.65-16.32-3.84-16-6.62.32-3,3.52-5.24,6.51-5.73,3.69-.6,6.93-1,14.75,1.73,4.2,1.48,14.88,11.39,18.94,9.57a25.58,25.58,0,0,0,8.18-6.18,27.07,27.07,0,0,0,12.91,1.4l1.19-.19c4-.65,8.09-3.64,8.54-7.88.25-2.4-2-3.78-3.85-4.61a45.906,45.906,0,0,0-5.93-2l-1.26-.35a83,83,0,0,0,6.9-11c.94-1.84,2-5.44,2.8-7.38,1-2.49,2.46-4.88,3.58-7.15.89-1.82,1.76-4.59,2.67-6.11,2.18-3.62,5.89-7.66,10.4-8.15,3.11-.34,6.14.89,3.66,4.62-2.75,4.12-5.48,7.34-7.37,11.92-1.45,3.51-1.71,7.17-2.92,10.67h0Z" transform="translate(-92 -346)" fill="#fff" fill-rule="evenodd"/>
    <path id="Path_9" data-name="Path 9" d="M110.14,419.34c.39-4.24.4-7.57.88-10.15.52-2.79,3.92-9.8,6-14.4a15.5,15.5,0,0,1,.08-1.9c.42-4.9,3.28-10.85,5.2-15.37,2.47-5.81,6.54-10.81,9.58-16.35,2.31-4.21,6.3-11.08,9.54-13.9,1.69-1.47,3.12-1.36,5.23-1.12a24.751,24.751,0,0,1,7.95,2.09,6,6,0,0,1,3.08,3.58c1.8,5.24,1,15,5,20.81,4.83,7,4.27,8.27,11.12,13.29,2.25,1.65,16.32,3.84,16,6.62-.32,3-3.52,5.24-6.51,5.73-3.69.6-6.93,1-14.75-1.73-4.2-1.48-14.88-11.39-18.94-9.57a25.579,25.579,0,0,0-8.18,6.18,27.071,27.071,0,0,0-12.91-1.4l-1.19.19c-4,.65-8.09,3.64-8.54,7.88-.25,2.4,2,3.78,3.85,4.61a45.851,45.851,0,0,0,5.93,2l1.26.35a83,83,0,0,0-6.9,11c-.94,1.84-2,5.44-2.8,7.38-1,2.49-2.46,4.88-3.58,7.14-.89,1.82-1.76,4.59-2.67,6.11-2.18,3.62-5.89,7.66-10.4,8.15-3.11.34-6.14-.89-3.66-4.62,2.75-4.12,5.48-7.34,7.37-11.92,1.45-3.51,1.71-7.17,2.92-10.67h0Z" transform="translate(-92 -346)" fill="#fff" fill-rule="evenodd"/>
    <path id="Path_10" data-name="Path 10" d="M200.94,373.26c-.39,4.24-.4,7.57-.88,10.15-.52,2.79-3.92,9.8-6,14.4a15.5,15.5,0,0,1-.08,1.9c-.42,4.9-3.27,10.85-5.2,15.37-2.47,5.81-6.54,10.81-9.58,16.35-2.31,4.21-6.3,11.08-9.54,13.9-1.69,1.47-3.12,1.36-5.23,1.12a24.758,24.758,0,0,1-7.95-2.09,6,6,0,0,1-3.08-3.58c-1.8-5.24-1-15-5-20.81-4.83-7-4.27-8.27-11.12-13.29-2.25-1.65-16.32-3.84-16-6.62.32-3,3.52-5.24,6.51-5.73,3.69-.6,6.93-1,14.75,1.73,4.2,1.48,14.88,11.39,18.94,9.57a25.58,25.58,0,0,0,8.18-6.18,27.07,27.07,0,0,0,12.91,1.4l1.19-.19c4-.65,8.09-3.64,8.54-7.88.25-2.4-2-3.78-3.85-4.61a45.906,45.906,0,0,0-5.93-2l-1.26-.35a83,83,0,0,0,6.9-11c.94-1.84,2-5.44,2.8-7.38,1-2.49,2.46-4.88,3.58-7.15.89-1.82,1.76-4.59,2.67-6.11,2.18-3.62,5.89-7.66,10.4-8.15,3.11-.34,6.14.89,3.66,4.62-2.75,4.12-5.48,7.34-7.37,11.92-1.45,3.51-1.71,7.17-2.92,10.67h0Z" transform="translate(-92 -346)" fill="#fff" fill-rule="evenodd"/>
    <path id="Path_11" data-name="Path 11" d="M110.14,419.34c.39-4.24.4-7.57.88-10.15.52-2.79,3.92-9.8,6-14.4a15.5,15.5,0,0,1,.08-1.9c.42-4.9,3.28-10.85,5.2-15.37,2.47-5.81,6.54-10.81,9.58-16.35,2.31-4.21,6.3-11.08,9.54-13.9,1.69-1.47,3.12-1.36,5.23-1.12a24.751,24.751,0,0,1,7.95,2.09,6,6,0,0,1,3.08,3.58c1.8,5.24,1,15,5,20.81,4.83,7,4.27,8.27,11.12,13.29,2.25,1.65,16.32,3.84,16,6.62-.32,3-3.52,5.24-6.51,5.73-3.69.6-6.93,1-14.75-1.73-4.2-1.48-14.88-11.39-18.94-9.57a25.579,25.579,0,0,0-8.18,6.18,27.071,27.071,0,0,0-12.91-1.4l-1.19.19c-4,.65-8.09,3.64-8.54,7.88-.25,2.4,2,3.78,3.85,4.61a45.851,45.851,0,0,0,5.93,2l1.26.35a83,83,0,0,0-6.9,11c-.94,1.84-2,5.44-2.8,7.38-1,2.49-2.46,4.88-3.58,7.14-.89,1.82-1.76,4.59-2.67,6.11-2.18,3.62-5.89,7.66-10.4,8.15-3.11.34-6.14-.89-3.66-4.62,2.75-4.12,5.48-7.34,7.37-11.92,1.45-3.51,1.71-7.17,2.92-10.67h0Z" transform="translate(-92 -346)" fill="#fff" fill-rule="evenodd"/>
  </g>
</svg>
