<svg id="_0d336730-645b-41ed-8a75-7f325721db8f" data-name="0d336730-645b-41ed-8a75-7f325721db8f" xmlns="http://www.w3.org/2000/svg" width="400" height="400" viewBox="0 0 400 400">
  <path id="Path_30" data-name="Path 30" d="M342.6,321.9c.2-.3.5-.5.7-.8,1-1.2,2-2.4,2.9-3.5.2-.3.4-.5.6-.8,2.3-2.9,4.5-5.9,6.7-8.9a3.508,3.508,0,0,0,.5-.8c.9-1.3,1.8-2.6,2.6-3.9l.6-.9c1-1.5,2-3,2.9-4.6h0A187.787,187.787,0,0,0,339.2,74.3h0a174.508,174.508,0,0,0-13.6-13.6h0c-1.1-1-2.3-2-3.5-3.1a2.181,2.181,0,0,0-.5-.4c-1-.9-2.1-1.8-3.1-2.6-.2-.2-.5-.4-.7-.6-1-.8-1.9-1.6-2.9-2.3-.3-.2-.6-.5-.9-.7-.9-.7-1.9-1.4-2.8-2.1a6.071,6.071,0,0,0-1-.7c-.9-.7-1.9-1.3-2.8-2-.4-.3-.7-.5-1.1-.8-.9-.6-1.9-1.3-2.8-1.9a10.477,10.477,0,0,1-1.1-.8c-.9-.6-1.9-1.2-2.8-1.8a7.457,7.457,0,0,0-1.2-.7c-1-.6-1.9-1.2-2.9-1.7-.4-.2-.8-.5-1.2-.7-1-.6-2-1.1-3-1.7a10.911,10.911,0,0,1-1.1-.6c-1-.6-2.1-1.1-3.1-1.7a4.671,4.671,0,0,0-1-.5c-1.1-.6-2.3-1.2-3.4-1.7-.3-.1-.5-.3-.8-.4-1.4-.6-2.7-1.3-4.1-1.9-.1,0-.1-.1-.2-.1-2.9-1.3-5.9-2.6-8.9-3.8-.1-.1-.3-.1-.5-.2-1.3-.5-2.6-1-4-1.5-.4-.1-.8-.3-1.2-.4-1.1-.4-2.2-.8-3.3-1.1-.5-.2-1-.3-1.5-.5-1-.3-2-.6-3-1-.6-.2-1.1-.3-1.7-.5a24.542,24.542,0,0,0-2.9-.8c-.6-.2-1.2-.3-1.9-.5a28.638,28.638,0,0,0-2.8-.7c-.6-.2-1.3-.3-1.9-.5-.9-.2-1.8-.4-2.8-.6-.7-.1-1.3-.3-2-.4l-2.7-.6c-.7-.1-1.4-.3-2-.4-.9-.2-1.8-.3-2.7-.5l-2.1-.3c-.9-.1-1.8-.3-2.8-.4l-2.1-.3c-.9-.1-1.9-.2-2.8-.3a14.919,14.919,0,0,0-2.1-.2c-.9-.1-1.9-.2-2.9-.3-.7-.1-1.4-.1-2.1-.2-1-.1-2-.1-3-.2-.6,0-1.3-.1-1.9-.1-1.1-.1-2.3-.1-3.4-.1-.5,0-1.1-.1-1.6-.1-1.7,0-3.3-.1-5-.1s-3.4,0-5,.1a8.6,8.6,0,0,0-1.6.1c-1.1,0-2.3.1-3.4.1-.6,0-1.3.1-1.9.1-1,.1-2,.1-3.1.2-.7.1-1.4.1-2,.2-1,.1-1.9.2-2.9.3-.7.1-1.4.1-2.1.2-.9.1-1.9.2-2.9.4l-2.1.3c-.9.1-1.9.3-2.8.4-.7.1-1.4.2-2,.3-.9.2-1.9.3-2.8.5-.7.1-1.3.3-2,.4-.9.2-1.9.4-2.8.6-.6.1-1.3.3-1.9.4-1,.2-1.9.4-2.9.7-.6.1-1.2.3-1.8.4-1,.3-2,.5-3,.8a7.494,7.494,0,0,0-1.6.5c-1.1.3-2.1.6-3.2.9-.5.1-.9.3-1.4.4-1.2.4-2.3.7-3.5,1.1-.4.1-.7.2-1,.3-1.4.5-2.9,1-4.3,1.5-.1,0-.1,0-.2.1-4.6,1.7-9.1,3.5-13.5,5.5-.1.1-.3.1-.4.2-1.3.6-2.6,1.2-3.9,1.9a2.507,2.507,0,0,0-.7.4l-3.6,1.8a5.937,5.937,0,0,0-.8.4c-1.1.6-2.3,1.2-3.4,1.8-.3.2-.6.3-.9.5-1.1.6-2.2,1.3-3.3,1.9a5.582,5.582,0,0,0-.8.5c-1.1.7-2.2,1.3-3.3,2-.3.2-.5.3-.8.5l-3.3,2.1c-.2.2-.5.3-.7.5-1.1.8-2.2,1.5-3.3,2.3-.2.1-.4.3-.6.4-1.2.8-2.3,1.7-3.5,2.5-.1.1-.2.2-.3.2A188.031,188.031,0,0,0,60.3,75.1h0A187.252,187.252,0,0,0,39.8,297.7h0c1,1.6,1.9,3.1,2.9,4.6l.6.9c.9,1.3,1.8,2.7,2.7,4a4.233,4.233,0,0,1,.5.7c2.1,3,4.4,6,6.7,8.9.2.3.4.5.6.8l3,3.6c.2.3.4.5.6.8,2.4,2.8,4.9,5.6,7.5,8.2l.6.6,3.3,3.3.8.8c1.3,1.2,2.5,2.4,3.8,3.6.1,0,.1.1.2.1,1.4,1.3,2.8,2.5,4.2,3.7.2.2.4.3.6.5l3.6,3c.3.3.7.5,1,.8,1.2,1,2.5,2,3.7,2.9a2.651,2.651,0,0,1,.6.5l4.5,3.3a1.381,1.381,0,0,1,.4.3c1.3.9,2.7,1.9,4,2.8a6.728,6.728,0,0,0,1.1.7c1.2.8,2.5,1.6,3.7,2.4a8.794,8.794,0,0,0,1,.6c1.6,1,3.2,1.9,4.8,2.8h.1c1.5.9,3.1,1.7,4.6,2.6.4.2.8.4,1.3.7,1.2.6,2.5,1.3,3.8,1.9.4.2.8.4,1.3.6,3.3,1.6,6.6,3.1,10,4.5a6.943,6.943,0,0,0,1.3.5l3.9,1.5,1.5.6c1.5.5,2.9,1.1,4.4,1.6.2.1.5.2.7.3,1.7.6,3.5,1.1,5.2,1.7.4.1.9.3,1.3.4,1.3.4,2.7.8,4,1.2.6.1,1.1.3,1.6.4,1.4.4,2.8.7,4.2,1.1l1.2.3,5.4,1.2c.4.1.8.1,1.2.2,1.4.3,2.9.5,4.3.8l1.8.3c1.4.2,2.7.4,4.1.6.5.1,1,.1,1.5.2,1.8.2,3.7.5,5.6.6a2.768,2.768,0,0,1,.9.1c1.6.1,3.2.3,4.8.4.6,0,1.2.1,1.8.1,1.4.1,2.7.1,4.1.2a9.7,9.7,0,0,1,1.7.1c1.9.1,3.8.1,5.7.1h0c1.9,0,3.8,0,5.7-.1a9.7,9.7,0,0,0,1.7-.1c1.4,0,2.7-.1,4.1-.2.6,0,1.2-.1,1.8-.1,1.6-.1,3.2-.3,4.8-.4a2.768,2.768,0,0,0,.9-.1c1.9-.2,3.7-.4,5.6-.6.5-.1,1-.1,1.5-.2,1.4-.2,2.7-.4,4.1-.6l1.8-.3c1.4-.3,2.9-.5,4.3-.8.4-.1.8-.1,1.2-.2l5.4-1.2,1.2-.3c1.4-.3,2.8-.7,4.2-1a7.494,7.494,0,0,0,1.6-.5c1.4-.4,2.7-.8,4-1.2.4-.1.9-.3,1.3-.4,1.8-.5,3.5-1.1,5.2-1.7.3-.1.5-.2.8-.3,1.5-.5,2.9-1,4.4-1.6l1.5-.6c1.3-.5,2.6-1,3.8-1.5a6.943,6.943,0,0,1,1.3-.5c3.4-1.4,6.7-2.9,10-4.5.4-.2.9-.4,1.3-.6,1.3-.6,2.5-1.3,3.7-1.9.4-.2.8-.4,1.3-.7,1.6-.8,3.1-1.7,4.6-2.6a.1.1,0,0,0,.1-.1c1.6-.9,3.2-1.9,4.8-2.8.3-.2.7-.4,1-.6,1.2-.8,2.5-1.5,3.7-2.3a10.477,10.477,0,0,0,1.1-.8c1.4-.9,2.7-1.8,4-2.7.2-.1.3-.2.5-.3l4.5-3.3c.2-.2.5-.3.7-.5,1.2-.9,2.4-1.9,3.6-2.9.3-.3.7-.5,1-.8l3.6-3c.2-.2.4-.3.6-.5,1.4-1.2,2.8-2.5,4.2-3.7l.3-.3c1.3-1.1,2.5-2.3,3.7-3.5a6.469,6.469,0,0,1,.9-.8c1.1-1.1,2.2-2.1,3.2-3.3.2-.2.4-.5.6-.7C337.8,327.4,340.2,324.7,342.6,321.9Z" fill="#fff"/>
  <path id="Path_31" data-name="Path 31" d="M76.1,323.9,58.6,341.4l-2-2-.7-.7c-2.7-2.8-5.4-5.8-7.9-8.8l-.7-.8c-1.1-1.3-2.1-2.5-3.2-3.9l-.7-.8c-2.5-3.1-4.9-6.3-7.1-9.5l-.5-.7c-1-1.4-1.9-2.8-2.9-4.2l-.6-.9c-1.1-1.6-2.1-3.3-3.1-4.9A199.858,199.858,0,0,1,0,200H24.8a174.2,174.2,0,0,0,25.6,91.2c.9,1.5,1.8,2.9,2.7,4.3l.5.8c.8,1.3,1.7,2.5,2.5,3.7l.4.6q3,4.2,6.3,8.4l.6.7c.9,1.1,1.8,2.3,2.8,3.4l.6.7c2.3,2.6,4.6,5.2,7,7.7l.6.6C74.9,322.7,75.5,323.3,76.1,323.9Z" fill="#0073a1"/>
  <path id="Path_32" data-name="Path 32" d="M200,375.3V400h-.3c-1.9,0-3.9,0-5.8-.1l-1.8-.1c-1.5-.1-2.9-.1-4.4-.2l-1.9-.1c-1.7-.1-3.4-.3-5.1-.4l-.9-.1c-2-.2-4-.4-5.9-.7l-1.6-.2c-1.5-.2-2.9-.4-4.4-.6-.6-.1-1.2-.2-1.9-.3-1.5-.3-3.1-.5-4.6-.8l-1.3-.3c-1.9-.4-3.9-.8-5.8-1.2l-1.3-.3c-1.5-.4-3-.7-4.5-1.1l-1.8-.5c-1.4-.4-2.9-.8-4.3-1.2l-1.4-.4c-1.9-.6-3.7-1.2-5.6-1.8l-.8-.3c-1.6-.5-3.2-1.1-4.7-1.7l-1.5-.6c-1.4-.5-2.8-1.1-4.2-1.7l-1.4-.6c-3.6-1.5-7.2-3.1-10.6-4.8l-1.3-.7c-1.3-.6-2.7-1.3-4-2l-1.3-.7c-1.7-.9-3.3-1.8-4.9-2.7l-.1-.1-5.1-3-1-.6c-1.3-.8-2.7-1.7-4-2.5l-1.2-.8c-1.5-1-2.9-1.9-4.3-3l-.5-.3c-1.6-1.1-3.2-2.3-4.8-3.5l-.6-.5c-1.3-1-2.7-2.1-4-3.1l-1-.8c-1.3-1.1-2.6-2.1-3.9-3.2l-.6-.5c-1.5-1.3-3.1-2.6-4.5-4l-.2-.2c-1.3-1.2-2.7-2.5-4-3.8l-.9-.8-1.5-1.5h0L76,324.1a15.932,15.932,0,0,0,1.3,1.3l.8.7c1.2,1.1,2.3,2.3,3.5,3.4l.2.2c1.3,1.1,2.6,2.3,3.9,3.5l.6.5c1.1,1,2.3,1.9,3.4,2.8l.9.7c1.1.9,2.3,1.8,3.5,2.7l.6.4c1.4,1,2.8,2.1,4.2,3.1l.4.3c1.2.9,2.5,1.7,3.8,2.6l1,.7c1.2.8,2.3,1.5,3.5,2.2l.9.6c1.4.9,2.9,1.8,4.4,2.6l.2.1c1.3.7,2.8,1.5,4.2,2.3l1.2.6c1.1.6,2.3,1.2,3.5,1.8l1.2.6q4.65,2.25,9.3,4.2l1.2.5c1.2.5,2.4,1,3.6,1.4l1.4.5c1.4.5,2.8,1,4.1,1.5l.7.3c1.6.5,3.2,1,4.9,1.6l1.2.4c1.2.4,2.5.7,3.8,1.1l1.5.4c1.3.3,2.6.7,3.9,1l1.2.3c1.7.4,3.3.7,5,1.1l1.1.2c1.3.3,2.7.5,4,.7l1.6.3,3.9.6,1.4.2c1.7.2,3.4.4,5.2.6l.8.1c1.5.1,3,.3,4.5.4l1.7.1c1.3.1,2.6.1,3.9.2l1.6.1a18.7,18.7,0,0,1,5.3-.3Z" fill="#9bc33d"/>
  <path id="Path_33" data-name="Path 33" d="M341.4,341.4l-1.4,1.4-.9.9c-1.3,1.3-2.6,2.5-3.9,3.7l-.3.3c-1.5,1.4-3,2.7-4.5,4l-.6.5c-1.3,1.1-2.5,2.1-3.8,3.2l-1.1.9-3.9,3-.7.5c-1.6,1.2-3.2,2.4-4.8,3.5l-.4.3c-1.5,1-2.9,2-4.4,3l-1.2.8c-1.3.8-2.6,1.7-3.9,2.5l-1.1.7-5.1,3-.3.1c-1.5.8-3.1,1.8-4.8,2.6l-1.3.7c-1.3.7-2.6,1.4-4,2l-1.4.7c-3.5,1.7-7.1,3.3-10.6,4.8l-1.4.6c-1.4.5-2.7,1.1-4.1,1.6l-1.6.6c-1.6.6-3.1,1.1-4.7,1.7l-.8.3c-1.9.6-3.7,1.2-5.6,1.8l-1.4.4c-1.4.4-2.9.8-4.3,1.2a12.09,12.09,0,0,0-1.8.5c-1.5.4-2.9.8-4.4,1.1l-1.3.3c-1.9.4-3.8.9-5.8,1.3l-1.3.2c-1.5.3-3.1.6-4.6.9l-1.9.3c-1.4.2-2.9.5-4.4.6l-1.6.2c-2,.3-4,.5-5.9.7l-.9.1c-1.7.1-3.4.3-5.1.4l-1.9.1c-1.4.1-2.9.2-4.4.2l-1.8.1c-1.9.1-3.9.1-5.8.1H200V375h0c1.8,0,3.6,0,5.3-.1l1.6-.1c1.3-.1,2.6-.1,3.8-.2l1.7-.1c1.5-.1,3-.2,4.5-.4l.8-.1c1.8-.2,3.5-.4,5.2-.6l1.4-.2c1.3-.2,2.6-.4,3.8-.6l1.6-.3c1.4-.2,2.7-.5,4-.7l1.1-.2c1.7-.3,3.4-.7,5.1-1.1l1.1-.3c1.3-.3,2.6-.6,3.9-1l1.5-.4c1.3-.4,2.5-.7,3.8-1.1l1.2-.4c1.6-.5,3.3-1,4.9-1.6l.7-.3c1.4-.5,2.7-1,4.1-1.5l1.3-.5c1.3-.5,2.5-1,3.7-1.5l1.2-.5q4.65-1.95,9.3-4.2l1.2-.6c1.2-.6,2.3-1.2,3.5-1.8l1.2-.6c1.5-.8,2.9-1.6,4.3-2.4l.3-.1c1.3-.8,2.8-1.7,4.3-2.5l.9-.6c1.2-.7,2.3-1.5,3.4-2.2l1.1-.7c1.3-.8,2.5-1.7,3.7-2.5l.3-.3c1.5-1.1,2.9-2.1,4.3-3.1l.6-.5c1.2-.9,2.3-1.8,3.5-2.7l.9-.8c1.1-.9,2.3-1.9,3.4-2.8l.6-.5c1.3-1.1,2.6-2.3,3.9-3.5l.3-.3c1.1-1,2.3-2.1,3.4-3.2l.8-.8a15.384,15.384,0,0,0,1.2-1.3Z" fill="#0073a1"/>
  <path id="Path_34" data-name="Path 34" d="M400,200a199.77,199.77,0,0,1-29.2,104.1l-.3.5c-.9,1.5-1.9,3-2.8,4.4l-.5.8c-1,1.5-1.9,2.9-2.9,4.3l-.5.8c-2.3,3.2-4.6,6.4-7.1,9.5l-.7.9c-1,1.3-2.1,2.5-3.1,3.8l-.7.9c-2.6,3-5.2,5.9-7.9,8.7l-.7.7-2,2-17.5-17.5,1.8-1.8.6-.6c2.4-2.5,4.7-5,6.9-7.6l.7-.8,2.7-3.3.6-.7c2.1-2.7,4.3-5.5,6.2-8.3l.5-.7c.8-1.2,1.7-2.4,2.5-3.6l.6-.8c.9-1.4,1.8-2.9,2.7-4.3l.2-.3a175.082,175.082,0,0,0,25.4-90.9L400,200Z" fill="#9bc33d"/>
  <path id="Path_35" data-name="Path 35" d="M400,200H375.2A174.355,174.355,0,0,0,330,82.6c-2-2.2-4.1-4.4-6.2-6.5l17.5-17.5c2.4,2.4,4.8,4.9,7.1,7.4A199.339,199.339,0,0,1,400,200Z" fill="#0073a1"/>
  <path id="Path_36" data-name="Path 36" d="M341.4,58.6,323.9,76.1c-2.1-2.1-4.2-4.1-6.4-6.1l-.3-.3c-1-.8-2-1.8-3.1-2.7l-.5-.4c-1-.8-1.9-1.6-2.9-2.4l-.7-.5c-.9-.7-1.8-1.5-2.7-2.2l-.8-.6c-.9-.7-1.8-1.3-2.7-2l-.8-.6c-1-.7-1.9-1.4-2.8-2l-1-.7c-.9-.6-1.7-1.2-2.6-1.8l-1.1-.7a23.265,23.265,0,0,1-2.6-1.7l-1.1-.7c-.9-.5-1.8-1.1-2.7-1.6l-1.1-.7c-.9-.5-1.9-1-2.8-1.6l-1.1-.6c-1-.5-1.9-1-2.9-1.6l-1-.5c-1.1-.5-2.1-1.1-3.2-1.6l-.8-.4c-1.2-.6-2.5-1.2-3.8-1.8l-.3-.1c-2.6-1.2-5.5-2.4-8.2-3.5l-.5-.2c-1.2-.5-2.4-.9-3.7-1.4l-1.1-.4c-1-.4-2-.7-3.1-1.1l-1.4-.5c-.9-.3-1.9-.6-2.8-.9l-1.6-.5c-.9-.3-1.8-.5-2.7-.8l-1.7-.5a25.043,25.043,0,0,0-2.6-.7l-1.8-.4c-.8-.2-1.7-.4-2.6-.6-.6-.1-1.2-.3-1.9-.4a19.969,19.969,0,0,0-2.6-.5c-.6-.1-1.3-.3-1.9-.4-.9-.1-1.7-.3-2.6-.4-.6-.1-1.3-.2-1.9-.3-.9-.1-1.7-.3-2.6-.4l-1.9-.3c-.9-.1-1.8-.2-2.6-.3h-.5c-.5-.1-1-.1-1.5-.2l-2.7-.3-1.9-.2c-.8-.1-1.6-.1-2.5-.2l-2.2-.1c-1.1-.1-2.1-.1-3.2-.1l-1.5-.1c-1.6,0-3.1-.1-4.7-.1V0c1.8,0,3.6,0,5.4.1l1.7.1c1.2,0,2.4.1,3.6.1.5,0,.9.1,1.4.1l1,.1c.9.1,1.9.1,2.9.2.5,0,1.1.1,1.6.1l.6.1c1,.1,2,.2,3.1.3.6.1,1.2.1,1.8.2h.4c1,.1,2,.3,3,.4l1.8.3.4.1c1,.1,2,.3,2.9.4a16.958,16.958,0,0,1,2.2.4c1,.2,1.9.3,2.9.5.7.1,1.5.3,2.2.4,1,.2,1.9.4,2.9.6.7.2,1.4.3,2.1.5a24.6,24.6,0,0,1,2.9.7c.7.2,1.4.3,2.1.5,1,.3,2,.5,3,.8l.3.1c.6.2,1.1.3,1.7.5,1,.3,2,.6,3.1.9l1.8.5c1.1.3,2.1.7,3.2,1l1.6.5c1.2.4,2.4.8,3.5,1.2l1.3.4c1.4.5,2.8,1.1,4.2,1.6l.5.2c3.1,1.2,6.3,2.6,9.5,4l.3.1c1.4.6,2.8,1.3,4.3,2l.9.4c1.2.6,2.5,1.2,3.7,1.9l1.1.6c1.1.6,2.3,1.2,3.4,1.8l1.2.7c1.1.6,2.1,1.2,3.2,1.8l1.2.7c1,.6,2.1,1.2,3.1,1.9l1.3.8c1,.6,2,1.3,3,1.9l1.2.8c1,.7,2,1.3,3,2l1.2.8,3,2.1,1.1.8c1,.7,2,1.5,3,2.3l1,.7c1.1.8,2.1,1.7,3.1,2.5l.8.6c1.1.9,2.2,1.8,3.3,2.8l.5.4c1.2,1,2.4,2.1,3.6,3.2l.3.3A94.569,94.569,0,0,1,341.4,58.6Z" fill="#9bc33d"/>
  <path id="Path_37" data-name="Path 37" d="M200,0V24.8c-1.6,0-3.1,0-4.7.1l-1.5.1c-1,0-2.1.1-3.2.1l-2.1.1a22.753,22.753,0,0,0-2.6.2l-1.9.2a24.77,24.77,0,0,0-2.7.3l-1.9.2-2.7.3-1.9.3c-.9.1-1.8.3-2.6.4-.6.1-1.3.2-1.9.3a23.813,23.813,0,0,0-2.6.5c-.6.1-1.3.2-1.9.3-.9.2-1.8.4-2.6.5l-1.8.4-2.7.6-1.7.4c-.9.2-1.9.5-2.8.7l-1.5.4c-1,.3-2,.6-2.9.9l-1.4.4c-1.1.3-2.2.7-3.3,1l-1,.3c-1.3.4-2.7.9-4,1.4l-.3.1c-4.1,1.5-8.4,3.2-12.5,5.1l-.4.2c-1.2.5-2.4,1.1-3.6,1.7l-.7.3c-1.1.5-2.2,1.1-3.3,1.7l-.8.4c-1.1.5-2.1,1.1-3.2,1.7l-.8.5c-1,.6-2,1.1-3.1,1.8l-.7.4c-1.2.7-2.2,1.3-3.2,1.9l-.7.5c-1,.7-2.1,1.3-3.1,2l-.7.4a34.572,34.572,0,0,0-3.1,2.2l-.5.3-3.3,2.4-.2.2A182.5,182.5,0,0,0,75.8,76.2L58.6,58.6A193.224,193.224,0,0,1,81.4,39l.3-.2c1.3-1,2.6-1.9,3.8-2.7l.6-.4,3.6-2.4.6-.4c1.3-.9,2.5-1.6,3.7-2.3l.8-.5c1.2-.7,2.3-1.5,3.5-2.1l.9-.5a39.724,39.724,0,0,1,3.5-2l.9-.5c1.2-.6,2.4-1.3,3.6-1.9l.9-.5c1.3-.6,2.5-1.3,3.8-1.9l.8-.4c1.4-.7,2.8-1.3,4.2-2l.4-.2c4.7-2.1,9.6-4.1,14.4-5.9l.3-.1c1.6-.6,3.1-1.1,4.5-1.6l1.1-.3c1.3-.4,2.5-.8,3.8-1.2l1.5-.5c1.1-.3,2.2-.7,3.4-1l1.8-.5c1.1-.3,2.1-.6,3.2-.8l1.8-.4c1.2-.3,2.2-.5,3.2-.7.7-.2,1.4-.3,2-.5l3-.6a15.525,15.525,0,0,1,2.1-.4c1-.2,2-.3,3-.5.7-.1,1.4-.3,2.2-.4,1-.2,2-.3,3-.5h.2c.6-.1,1.3-.2,2-.3,1-.1,2-.3,3-.4l.5-.1c.6-.1,1.1-.1,1.7-.2,1-.1,2.1-.2,3.1-.3l.5-.1c.6,0,1.1-.1,1.7-.1,1-.1,2-.2,2.9-.2l2.3-.2c1.2-.1,2.4-.1,3.6-.1l1.7-.1C196.4,0,198.2,0,200,0Z" fill="#0073a1"/>
  <path id="Path_38" data-name="Path 38" d="M76.1,76.1c-2.3,2.3-4.4,4.6-6.6,6.9A175.2,175.2,0,0,0,24.8,200H0A199.445,199.445,0,0,1,51.1,66.5c2.4-2.7,4.9-5.3,7.5-7.9Z" fill="#9bc33d"/>
</svg>
