<svg xmlns="http://www.w3.org/2000/svg" width="460" height="460.334" viewBox="0 0 460 460.334">
  <g id="user-svgrepo-com" transform="translate(-0.167)">
    <path id="Path_1" data-name="Path 1" d="M230.167,0C103.141,0,.167,102.975.167,230c0,115.438,85.045,211.014,195.9,227.489l264.01-234.015C456.621,99.467,355.01,0,230.167,0Z" fill="#9bc33d"/>
    <path id="Path_2" data-name="Path 2" d="M460.167,230.333c0-2.294-.043-4.577-.11-6.855L305.371,68.793,154.664,219.5l66.989,66.99L99.358,361.143l96.664,96.664a231.864,231.864,0,0,0,34.145,2.527C357.192,460.333,460.167,357.359,460.167,230.333Z" fill="#a9d938"/>
    <path id="Path_3" data-name="Path 3" d="M230.018,37.582a106.565,106.565,0,0,1,0,213.13L192.627,144.147Z" fill="#79ac00"/>
    <path id="Path_4" data-name="Path 4" d="M230.018,37.582v213.13a106.565,106.565,0,0,1,0-213.13Z" fill="#6c9636"/>
    <path id="Path_5" data-name="Path 5" d="M323.867,270.712a211.363,211.363,0,0,1,66.584,51.721A184.923,184.923,0,0,1,230.167,415l-20-92.144,95.785-52.145Z" fill="#79ac00"/>
    <path id="Path_6" data-name="Path 6" d="M136.467,270.712a211.363,211.363,0,0,0-66.584,51.721A184.922,184.922,0,0,0,230.167,415V308.212l-75.785-37.5Z" fill="#557a00"/>
    <path id="Path_7" data-name="Path 7" d="M277.667,270.712l-57.5,37.5,10,38.284,75.784-75.785Z" fill="#6c9636"/>
    <path id="Path_8" data-name="Path 8" d="M182.667,270.712l47.5,37.5V346.5l-75.785-75.785Z" fill="#6c9636"/>
    <path id="Path_9" data-name="Path 9" d="M230.167,270.712l-10,20.291,10,27.209,47.5-47.5Z" fill="#79ac00"/>
    <path id="Path_10" data-name="Path 10" d="M182.667,270.712l47.5,47.5v-47.5Z" fill="#9bc33d"/>
  </g>
</svg>
