<svg width="70" height="70" viewBox="0 0 70 70" fill="none" xmlns="http://www.w3.org/2000/svg">
<g clip-path="url(#clip0_695_807)">
<path fill-rule="evenodd" clip-rule="evenodd" d="M35 0C15.6953 0 0 15.6953 0 35C0 54.3047 15.6953 70 35 70C54.3047 70 70 54.3047 70 35C70 15.6953 54.3047 0 35 0Z" fill="#0B564E"/>
<path fill-rule="evenodd" clip-rule="evenodd" d="M51.9258 23.2012C52.7734 24.0488 52.7734 25.4434 51.9258 26.291L31.418 46.7988C30.9941 47.2226 30.4336 47.4414 29.873 47.4414C29.3125 47.4414 28.752 47.2226 28.3281 46.7988L18.0742 36.5449C17.2266 35.6973 17.2266 34.3027 18.0742 33.4551C18.9219 32.6074 20.3164 32.6074 21.1641 33.4551L29.873 42.1641L48.8359 23.2012C49.6836 22.3398 51.0781 22.3398 51.9258 23.2012Z" fill="white"/>
</g>
<defs>
<clipPath id="clip0_695_807">
<rect width="70" height="70" fill="white"/>
</clipPath>
</defs>
</svg>
