<svg width="74" height="74" viewBox="0 0 74 74" fill="none" xmlns="http://www.w3.org/2000/svg">
<circle cx="37" cy="37" r="36.5" stroke="white"/>
<g clip-path="url(#clip0_253_554)">
<path d="M51.1835 44.017L46.9969 39.8304C45.5017 38.3352 42.9598 38.9333 42.3617 40.877C41.9132 42.2228 40.418 42.9704 39.0723 42.6713C36.0818 41.9237 32.0448 38.0361 31.2972 34.8962C30.8486 33.5504 31.7457 32.0552 33.0914 31.6067C35.0352 31.0086 35.6333 28.4668 34.1381 26.9716L29.9515 22.785C28.7553 21.7383 26.9611 21.7383 25.9144 22.785L23.0735 25.6259C20.2326 28.6163 23.3726 36.5409 30.4 43.5684C37.4275 50.5959 45.3522 53.8854 48.3426 50.8949L51.1835 48.054C52.2302 46.8579 52.2302 45.0636 51.1835 44.017Z" fill="white"/>
</g>
<defs>
<clipPath id="clip0_253_554">
<rect width="30" height="30" fill="white" transform="translate(22 22)"/>
</clipPath>
</defs>
</svg>
