<svg width="60" height="60" viewBox="0 0 60 60" fill="none" xmlns="http://www.w3.org/2000/svg">
<circle cx="30" cy="30" r="29.5" fill="#F3F0E4" stroke="black"/>
<path d="M19.3336 16.5234C17.2713 16.5234 15.9229 17.8777 15.9229 19.6576C15.9229 21.3983 17.2311 22.7911 19.2545 22.7911H19.2936C21.3963 22.7911 22.7048 21.3983 22.7048 19.6576C22.6655 17.8777 21.3963 16.5234 19.3336 16.5234Z" fill="black"/>
<path d="M16.2793 25.2676H22.3084V43.4063H16.2793V25.2676Z" fill="black"/>
<path d="M37.1067 24.8418C33.8543 24.8418 31.6733 27.8981 31.6733 27.8981V25.2675H25.644V43.4063H31.673V33.2769C31.673 32.7346 31.7123 32.1932 31.8716 31.8054C32.3074 30.7226 33.2993 29.6008 34.9649 29.6008C37.1466 29.6008 38.0191 31.2642 38.0191 33.7026V43.4063H44.0477V33.0058C44.0477 27.4344 41.0731 24.8418 37.1067 24.8418Z" fill="black"/>
</svg>
