<svg width="74" height="74" viewBox="0 0 74 74" fill="none" xmlns="http://www.w3.org/2000/svg">
<circle cx="37" cy="37" r="36.5" stroke="white"/>
<path d="M37 22.9375C34.265 22.9375 31.6419 24.024 29.708 25.958C27.774 27.8919 26.6875 30.515 26.6875 33.25C26.6875 38.6969 35.875 50.2188 36.2688 50.7156C36.3566 50.8251 36.4679 50.9135 36.5945 50.9742C36.721 51.0349 36.8596 51.0665 37 51.0665C37.1404 51.0665 37.279 51.0349 37.4055 50.9742C37.5321 50.9135 37.6434 50.8251 37.7313 50.7156C38.125 50.2188 47.3125 38.6969 47.3125 33.25C47.3125 30.515 46.226 27.8919 44.292 25.958C42.3581 24.024 39.735 22.9375 37 22.9375ZM37 36.0625C36.2583 36.0625 35.5333 35.8426 34.9166 35.4305C34.2999 35.0185 33.8193 34.4328 33.5355 33.7476C33.2516 33.0623 33.1774 32.3083 33.3221 31.5809C33.4667 30.8535 33.8239 30.1853 34.3483 29.6608C34.8728 29.1364 35.541 28.7792 36.2684 28.6346C36.9958 28.4899 37.7498 28.5641 38.4351 28.848C39.1203 29.1318 39.706 29.6124 40.118 30.2291C40.5301 30.8458 40.75 31.5708 40.75 32.3125C40.75 33.3071 40.3549 34.2609 39.6516 34.9642C38.9484 35.6674 37.9946 36.0625 37 36.0625Z" fill="white"/>
</svg>
