<svg width="74" height="74" viewBox="0 0 74 74" fill="none" xmlns="http://www.w3.org/2000/svg">
<circle cx="37" cy="37" r="36.5" stroke="white"/>
<g clip-path="url(#clip0_253_563)">
<path d="M39.5072 40.3803C38.7608 40.8779 37.8938 41.1409 37 41.1409C36.1062 41.1409 35.2393 40.8779 34.4929 40.3803L22.1997 32.1846C22.1315 32.1392 22.0651 32.0918 22 32.043V45.4725C22 47.0123 23.2495 48.2342 24.7617 48.2342H49.2382C50.778 48.2342 51.9999 46.9847 51.9999 45.4725V32.043C51.9347 32.0918 51.8682 32.1394 51.7998 32.1849L39.5072 40.3803Z" fill="white"/>
<path d="M23.1748 30.7222L35.4679 38.9179C35.9333 39.2282 36.4666 39.3833 36.9999 39.3833C37.5333 39.3833 38.0667 39.2281 38.5321 38.9179L50.8252 30.7222C51.5608 30.2321 52 29.4117 52 28.5264C52 27.0041 50.7615 25.7656 49.2392 25.7656H24.7608C23.2385 25.7657 22 27.0041 22 28.5279C22 29.4117 22.4392 30.2321 23.1748 30.7222Z" fill="white"/>
</g>
<defs>
<clipPath id="clip0_253_563">
<rect width="30" height="30" fill="white" transform="translate(22 22)"/>
</clipPath>
</defs>
</svg>
