<svg width="126" height="126" viewBox="0 0 126 126" fill="none" xmlns="http://www.w3.org/2000/svg">
<g clip-path="url(#clip0_234_743)">
<path d="M63 0C28.2597 0 0 28.2624 0 63C0 97.7376 28.2597 126 63 126C97.7403 126 126 97.7376 126 63C126 28.2624 97.7403 0 63 0ZM88.0452 65.2072L51.2953 88.8322C50.8646 89.1115 50.3673 89.2501 49.8751 89.2501C49.4444 89.2501 49.0086 89.1423 48.619 88.9297C47.7729 88.4682 47.25 87.5862 47.25 86.625V39.375C47.25 38.4138 47.7729 37.5318 48.619 37.0703C49.4496 36.6141 50.4903 36.6421 51.2953 37.1678L88.0452 60.7928C88.7938 61.2746 89.2501 62.1079 89.2501 63C89.2501 63.8921 88.7938 64.7251 88.0452 65.2072Z" fill="white"/>
</g>
<defs>
<clipPath id="clip0_234_743">
<rect width="126" height="126" fill="white"/>
</clipPath>
</defs>
</svg>
