<svg id="new-trigotab-logo_2" xmlns="http://www.w3.org/2000/svg" width="293.586" height="43.042" viewBox="0 0 293.586 43.042">
  <path id="Path_1" data-name="Path 1" d="M310.15,174.84c-4.58,5.98-9.16,10.19-18.06,15.9l-1.24-1.32a67.756,67.756,0,0,0,18.88-15.71l.42,1.14Z" transform="translate(-33.209 -158.478)" fill="#185c2e" fill-rule="evenodd"/>
  <path id="Path_2" data-name="Path 2" d="M306.32,171.9c-.41-5.71-4.94-9.04-9.62-10.5-1.88-.59-2.58-.19-3.15,1.81a12,12,0,0,0-.46,5.7,13.07,13.07,0,0,0,7.07,9.29c1.17.51,3.13.77,4.28.03,1.21-.78,2.02-4.35,1.88-6.33" transform="translate(-33.209 -158.478)" fill="#5d9a42" fill-rule="evenodd"/>
  <path id="Path_3" data-name="Path 3" d="M315.93,173.98c4.86-3.03,5.69-8.59,4.8-13.41-.36-1.94-1.03-2.37-3.07-1.94a12.177,12.177,0,0,0-5.26,2.25,13.085,13.085,0,0,0-4.91,10.59c.1,1.28.79,3.13,1.97,3.8,1.25.7,4.79-.25,6.47-1.3" transform="translate(-33.209 -158.478)" fill="#5d9a42" fill-rule="evenodd"/>
  <path id="Path_4" data-name="Path 4" d="M311.37,185.82c4.85,3.04,10.22,1.34,14.15-1.58,1.58-1.17,1.67-1.97.39-3.61a12.065,12.065,0,0,0-4.33-3.73,13.085,13.085,0,0,0-11.67.24c-1.1.65-2.47,2.08-2.54,3.44-.08,1.43,2.33,4.19,4.01,5.24" transform="translate(-33.209 -158.478)" fill="#5d9a42" fill-rule="evenodd"/>
  <path id="Path_5" data-name="Path 5" d="M309.52,180.61c-.69-.28-.94-.34,1.22,0,2.55.41,8.19-.42,11.82,1.17a6.738,6.738,0,0,1,2.28,1.55c-1.27-.91-6.2-1.65-8.06-1.62-3.83.05-4.93-.16-7.27-1.1" transform="translate(-33.209 -158.478)" fill="#a5c739" fill-rule="evenodd"/>
  <path id="Path_6" data-name="Path 6" d="M284.56,190.79q0-4.71-5.41-6.73a48.048,48.048,0,0,1-7.06,1.69v9.32c0,1.48,1.29,2.21,3.86,2.21a9.714,9.714,0,0,0,6.45-1.98,5.629,5.629,0,0,0,2.17-4.52m-2.21-17.09q0-4.095-6.31-4.1a8.756,8.756,0,0,0-2.64.28,1.894,1.894,0,0,0-1.32,1.98v10.12a17.722,17.722,0,0,0,6.78-2.78q3.48-2.4,3.48-5.51Zm11.3,17.23a8.634,8.634,0,0,1-4.85,8.15,13.461,13.461,0,0,1-6.54,1.7h-19.4c-1.32,0-1.98-.5-1.98-1.51a1.817,1.817,0,0,1,1.32-1.69,2.1,2.1,0,0,0,1.32-2.12v-24.2a1.833,1.833,0,0,0-1.34-1.76,1.794,1.794,0,0,1-1.34-1.67c0-1,.88-1.51,2.64-1.51h18.03a12.139,12.139,0,0,1,6.87,1.84,6.673,6.673,0,0,1,3.06,5.79,7.066,7.066,0,0,1-1.93,4.71,10.493,10.493,0,0,1-4.94,3.15,12.579,12.579,0,0,1,6.71,3.37,8.087,8.087,0,0,1,2.38,5.77Zm-48.26-5.18-5.23-12.52-5.37,12.52h10.59Zm14.74,13.56c0,.97-.68,1.46-2.03,1.46h-8.85c-1.63,0-2.45-.49-2.45-1.46a1.605,1.605,0,0,1,1.04-1.39c.69-.36,1.04-.78,1.04-1.25a2.509,2.509,0,0,0-.14-.71l-2.03-6.4H233.63c-1.22,3.3-1.84,5.38-1.84,6.26a2.053,2.053,0,0,0,1.22,1.88c.82.44,1.22.97,1.22,1.6,0,.97-.8,1.46-2.4,1.46h-5.18c-1.38,0-2.07-.49-2.07-1.46a1.784,1.784,0,0,1,.94-1.55,4.365,4.365,0,0,0,1.6-1.98c.97-2.83,1.95-5.52,2.92-8.1q3.39-9.27,5.93-15.07a19.049,19.049,0,0,1,3.01-5.13,4.364,4.364,0,0,1,3.25-1.51,4.153,4.153,0,0,1,2.83.92,10.338,10.338,0,0,1,2.26,3.41q3.855,8.055,10.08,24.67c.16.47.32.95.49,1.44a2.292,2.292,0,0,0,1.01,1.2,2.1,2.1,0,0,1,1.22,1.7Zm-35.55-27.35c0,1.32-.61,1.98-1.84,1.98a2.539,2.539,0,0,1-1.74-1.08,11.272,11.272,0,0,0-1.98-1.93,6.3,6.3,0,0,0-3.77-1.08,1.75,1.75,0,0,0-1.98,1.98V195.5a2.2,2.2,0,0,0,1.32,2.14c.88.42,1.32.97,1.32,1.62,0,1.01-.69,1.51-2.07,1.51h-9.79c-1.29,0-1.93-.5-1.93-1.51,0-.66.43-1.21,1.3-1.65a2.4,2.4,0,0,0,1.29-2.35v-23.4a2.428,2.428,0,0,0-.38-1.6,2.017,2.017,0,0,0-1.51-.42,6.719,6.719,0,0,0-4,1.07,10.281,10.281,0,0,0-1.93,1.96,2.456,2.456,0,0,1-1.79,1.07,1.8,1.8,0,0,1-1.08-.38,1.759,1.759,0,0,1-.71-1.87,36.846,36.846,0,0,1,.8-4.12c.22-.84,1.05-1.26,2.5-1.26h25.19a1.915,1.915,0,0,1,2.07,1.32,14.56,14.56,0,0,1,.71,4.33Zm-42.28,11.44q0-7.485-3.11-11.21a8.012,8.012,0,0,0-6.45-3.06,8.169,8.169,0,0,0-7.58,4.61,20.008,20.008,0,0,0-2.12,9.7q0,7.53,2.97,11.3a8.006,8.006,0,0,0,6.64,3.2,8.167,8.167,0,0,0,6.78-3.3q2.865-3.765,2.87-11.25Zm9.09.19a16.761,16.761,0,0,1-5.44,12.92,19.044,19.044,0,0,1-13.39,5.02,18.34,18.34,0,0,1-13.04-4.85,16.878,16.878,0,0,1-5.51-13.04,17.093,17.093,0,0,1,5.27-12.92,20.053,20.053,0,0,1,26.79-.04,17.125,17.125,0,0,1,5.32,12.92Zm-39.69,11.63q0,1.275-1.98,2.64a20.525,20.525,0,0,1-5.46,2.4,25.326,25.326,0,0,1-7.35,1.27q-9.465,0-14.83-5.46a16.433,16.433,0,0,1-4.85-12.1,17.212,17.212,0,0,1,5.79-13.46,19.957,19.957,0,0,1,13.79-4.94,24.532,24.532,0,0,1,8.81,1.55q4.05,1.56,4.24,3.67c.09,1.1.14,2.43.14,4,0,1.26-.58,1.88-1.74,1.88-.75,0-1.48-.66-2.17-1.98a14.426,14.426,0,0,0-2.5-3.63,8.214,8.214,0,0,0-5.84-1.98,10.118,10.118,0,0,0-8.05,3.86,15.44,15.44,0,0,0-3.39,10.26,17.924,17.924,0,0,0,2.5,9.7,8.879,8.879,0,0,0,7.86,4.57q6.69,0,6.4-7.39c-.06-1.66-.28-2.71-.66-3.13s-1.32-.64-2.82-.64a8.739,8.739,0,0,1-2.87-.28c-.57-.22-.85-.75-.85-1.6,0-1.19.86-1.79,2.59-1.79h9.37q3.72,0,3.72,1.65a23.275,23.275,0,0,1-.26,2.73,24.456,24.456,0,0,0-.26,3.15,14.626,14.626,0,0,0,.33,3.15,12.675,12.675,0,0,1,.33,1.88Zm-37.1,4.05c0,1.01-.67,1.51-2.03,1.51h-9.7c-1.35,0-2.02-.5-2.02-1.51a1.865,1.865,0,0,1,1.29-1.72,2,2,0,0,0,1.29-1.95V171.2a1.81,1.81,0,0,0-1.29-1.72,1.78,1.78,0,0,1-1.29-1.67c0-1,.77-1.51,2.31-1.51h9.04c1.6,0,2.4.5,2.4,1.51a1.8,1.8,0,0,1-1.3,1.65,2.006,2.006,0,0,0-1.29,1.98v24.34a1.875,1.875,0,0,0,1.29,1.79,1.831,1.831,0,0,1,1.3,1.69ZM88.2,175.25a4.882,4.882,0,0,0-2.26-4.24,8.059,8.059,0,0,0-4.8-1.41,4.888,4.888,0,0,0-2.92.66c-.75.53-1.13,1.55-1.13,3.06v9.46a17.658,17.658,0,0,0,7.34-1.74,6.2,6.2,0,0,0,3.77-5.79Zm11.86,24.06c0,.97-.85,1.46-2.54,1.46H88.1c-1.69,0-2.54-.44-2.54-1.32a1.877,1.877,0,0,1,1.04-1.53c.69-.46,1.04-.93,1.04-1.44a11.708,11.708,0,0,0-1.67-4.35,54.346,54.346,0,0,0-4.07-6.43l-4.8.75v9.27a1.9,1.9,0,0,0,1.27,1.81,1.858,1.858,0,0,1,1.27,1.72c0,1.01-.61,1.51-1.84,1.51H68.05c-1.38,0-2.07-.5-2.07-1.51a1.8,1.8,0,0,1,1.27-1.69,2.034,2.034,0,0,0,1.27-2.03v-24.2a1.885,1.885,0,0,0-1.27-1.86,1.772,1.772,0,0,1-1.27-1.67c0-1,.86-1.51,2.59-1.51H86.7a12.483,12.483,0,0,1,7.44,2.03,7.2,7.2,0,0,1,3.11,6.21,8.329,8.329,0,0,1-2.31,5.65,13.629,13.629,0,0,1-4.71,3.44,38.034,38.034,0,0,1,5.27,8.57c.44,1.07.89,2.14,1.34,3.23a5.309,5.309,0,0,0,1.25,2.05c.38.28.78.56,1.22.85q.75.57.75.99ZM64.51,171.96c0,1.32-.61,1.98-1.84,1.98a2.539,2.539,0,0,1-1.74-1.08,11.272,11.272,0,0,0-1.98-1.93,6.3,6.3,0,0,0-3.77-1.08,1.75,1.75,0,0,0-1.98,1.98v23.68a2.2,2.2,0,0,0,1.32,2.14c.88.42,1.32.97,1.32,1.62,0,1.01-.69,1.51-2.07,1.51H43.98c-1.29,0-1.93-.5-1.93-1.51q0-.99,1.29-1.65a2.411,2.411,0,0,0,1.3-2.35v-23.4a2.489,2.489,0,0,0-.38-1.6,2.017,2.017,0,0,0-1.51-.42,6.719,6.719,0,0,0-4,1.07,10.281,10.281,0,0,0-1.93,1.96,2.456,2.456,0,0,1-1.79,1.07,1.8,1.8,0,0,1-1.08-.38,1.759,1.759,0,0,1-.71-1.87,36.846,36.846,0,0,1,.8-4.12c.22-.84,1.05-1.26,2.5-1.26H61.73a1.914,1.914,0,0,1,2.07,1.32,14.56,14.56,0,0,1,.71,4.33Z" transform="translate(-33.209 -158.478)" fill="#5d9a42"/>
  <path id="Path_7" data-name="Path 7" d="M303.36,176.8c.22.71.33.94-.76-.95-1.29-2.24-5.47-6.11-6.52-9.93a6.717,6.717,0,0,1-.23-2.75c.09,1.56,2.61,5.85,3.8,7.29,2.45,2.95,2.97,3.94,3.71,6.34" transform="translate(-33.209 -158.478)" fill="#a5c739" fill-rule="evenodd"/>
  <path id="Path_8" data-name="Path 8" d="M310.76,173.08c-.54.52-.69.72.5-1.11,1.41-2.16,2.98-7.64,5.91-10.3a6.634,6.634,0,0,1,2.35-1.44c-1.35.78-4.04,4.98-4.78,6.68-1.53,3.52-2.17,4.43-3.98,6.18" transform="translate(-33.209 -158.478)" fill="#a5c739" fill-rule="evenodd"/>
</svg>
