<svg width="60" height="60" viewBox="0 0 60 60" fill="none" xmlns="http://www.w3.org/2000/svg">
<circle cx="30" cy="30" r="29.5" fill="#F3F0E4" stroke="black"/>
<path d="M24.7733 41.2626C35.3871 41.2626 41.1913 32.4695 41.1913 24.8447C41.1913 24.5949 41.1861 24.3462 41.175 24.0989C42.3015 23.2843 43.2807 22.2678 44.0533 21.1108C43.0195 21.5705 41.9066 21.8796 40.7396 22.0194C41.9309 21.3048 42.8456 20.1748 43.2769 18.8277C42.1621 19.4887 40.9273 19.9689 39.6129 20.2283C38.5599 19.1067 37.0606 18.4053 35.4007 18.4053C32.2143 18.4053 29.63 20.9894 29.63 24.1747C29.63 24.6278 29.6808 25.0681 29.7797 25.4905C24.9839 25.2492 20.7311 22.9532 17.8854 19.4617C17.39 20.3143 17.1042 21.305 17.1042 22.3621C17.1042 24.3638 18.1229 26.1314 19.6719 27.1651C18.7252 27.136 17.836 26.8761 17.0586 26.4436C17.0577 26.4678 17.0577 26.4914 17.0577 26.5172C17.0577 29.3118 19.0467 31.6451 21.6874 32.1738C21.2023 32.3057 20.692 32.3768 20.1657 32.3768C19.7945 32.3768 19.4327 32.3403 19.0811 32.2727C19.8157 34.5654 21.9461 36.2338 24.4717 36.2806C22.4966 37.8285 20.0087 38.7506 17.3047 38.7506C16.8396 38.7506 16.3799 38.724 15.9282 38.6706C18.482 40.3075 21.5145 41.2628 24.7735 41.2628" fill="black"/>
</svg>
