<svg width="60" height="60" viewBox="0 0 60 60" fill="none" xmlns="http://www.w3.org/2000/svg">
<circle cx="30" cy="30" r="29.5" fill="#F3F0E4" stroke="black"/>
<path d="M43.4683 22.97C43.1442 21.7651 42.1942 20.8153 40.9895 20.4909C38.7887 19.8887 29.985 19.8887 29.985 19.8887C29.985 19.8887 21.1817 19.8887 18.9808 20.468C17.7993 20.7921 16.8261 21.7653 16.502 22.97C15.9229 25.1707 15.9229 29.7347 15.9229 29.7347C15.9229 29.7347 15.9229 34.3216 16.502 36.4993C16.8265 37.704 17.7761 38.6538 18.981 38.9783C21.2049 39.5806 29.9853 39.5806 29.9853 39.5806C29.9853 39.5806 38.7887 39.5806 40.9895 39.0013C42.1944 38.677 43.1442 37.7272 43.4687 36.5225C44.0477 34.3216 44.0477 29.7578 44.0477 29.7578C44.0477 29.7578 44.0709 25.1707 43.4683 22.97ZM27.1821 33.951V25.5183L34.5028 29.7347L27.1821 33.951Z" fill="black"/>
</svg>
